<svg width="721" height="462" viewBox="0 0 721 462" fill="none" xmlns="http://www.w3.org/2000/svg">
<g clip-path="url(#clip0_104_6208)">
<rect width="720" height="461.949" transform="translate(0.522949)" fill="white"/>
<path d="M124.117 391.053C123.261 392.344 106.277 398.7 112.395 410.837C115.737 417.465 112.982 418.726 109.864 417.708C107.185 416.835 105.365 413.209 103.762 417.055C98.4853 429.719 86.4259 435.91 86.1485 426.555C85.9965 421.498 79.9733 422.456 78.5637 425.627C75.576 432.355 70.544 435.52 68.7573 430.318C67.0005 425.206 64.127 423.135 61.8866 425.471C59.649 427.804 58.0672 434.017 53.071 430.293C51.1025 428.826 51.026 422.577 54.5184 418.875C56.5111 416.767 64.3755 412.033 57.3907 409.838C50.1936 407.574 54.3691 403.015 58.5065 402.759C60.0474 402.664 74.2428 400.644 70.6072 397.568C66.3171 393.934 69.1295 389.927 76.2089 390.862C79.4245 391.285 86.1303 394.362 86.2739 391.532C86.4174 388.705 87.514 384.822 92.43 385.556C100.906 386.82 122.342 393.741 124.123 391.056L124.117 391.053Z" fill="#B8D99C"/>
<path d="M54.0614 425.888C54.0614 425.888 66.3884 409.269 88.8437 402.454C108.352 396.532 118.132 394.506 128.443 389.162" stroke="white" stroke-width="0.85142" stroke-miterlimit="10" stroke-linecap="round"/>
<path d="M71.8024 424.47C71.8024 424.47 73.0766 415.392 77.1682 407.205" stroke="white" stroke-width="0.85142" stroke-miterlimit="10" stroke-linecap="round"/>
<path d="M57.522 407.441C57.4061 407.443 70.6062 405.938 80.3803 405.676" stroke="white" stroke-width="0.85142" stroke-miterlimit="10" stroke-linecap="round"/>
<path d="M94.344 411.962C95.1814 408.751 96.1809 404.803 97.3644 399.989" stroke="white" stroke-width="0.85142" stroke-miterlimit="10" stroke-linecap="round"/>
<path d="M71.333 393.66C71.333 393.66 87.5521 400.48 90.6352 401.896" stroke="white" stroke-width="0.85142" stroke-miterlimit="10" stroke-linecap="round"/>
<path d="M90.3149 388.645C90.3149 388.645 101.951 396.469 110.761 395.936" stroke="white" stroke-width="0.85142" stroke-miterlimit="10" stroke-linecap="round"/>
<path d="M531.491 33.4184C531.666 33.8816 532.102 34.1871 532.587 34.1871C533.072 34.1871 533.509 33.8816 533.684 33.4184L535.245 29.1706C535.294 29.0424 535.391 28.9341 535.517 28.8848L539.698 27.2882C540.154 27.1108 540.454 26.6673 540.454 26.1745C540.454 25.6817 540.154 25.2283 539.698 25.0608L535.517 23.4642C535.391 23.4149 535.284 23.3164 535.236 23.1882L533.664 18.9405C533.46 18.5167 533.034 18.2407 532.568 18.2407C532.102 18.2407 531.676 18.5167 531.472 18.9405L529.9 23.1882C529.852 23.3164 529.755 23.4149 529.629 23.4642L525.448 25.0608C524.992 25.2382 524.691 25.6817 524.691 26.1745C524.691 26.6673 524.992 27.1108 525.448 27.2882L529.629 28.8848C529.755 28.9341 529.852 29.0326 529.91 29.1706L531.482 33.4184H531.491Z" fill="#27AA27"/>
<path d="M682.193 59.4948C682.3 59.7905 682.581 59.9876 682.892 59.9876C683.202 59.9876 683.474 59.7905 683.59 59.4948L684.579 56.8042C684.609 56.7254 684.676 56.6564 684.754 56.6268L687.402 55.6216C687.693 55.5131 687.887 55.2273 687.887 54.9119C687.887 54.5965 687.693 54.3108 687.402 54.2024L684.754 53.1872C684.676 53.1576 684.609 53.0886 684.579 53.0098L683.59 50.3192C683.464 50.0433 683.192 49.8757 682.892 49.8757C682.591 49.8757 682.329 50.0531 682.193 50.3192L681.204 53.0098C681.175 53.0886 681.107 53.1576 681.029 53.1872L678.381 54.2024C678.09 54.3108 677.896 54.5965 677.896 54.9119C677.896 55.2273 678.09 55.5131 678.381 55.6216L681.029 56.6367C681.107 56.6662 681.175 56.7353 681.204 56.8141L682.203 59.5047L682.193 59.4948Z" fill="#27AA27"/>
<path d="M668.473 37.0149C668.618 37.4091 668.987 37.6752 669.404 37.6752C669.821 37.6752 670.19 37.4091 670.335 37.0149L671.664 33.4078C671.703 33.2993 671.79 33.2106 671.897 33.1712L675.447 31.821C675.835 31.6732 676.097 31.2987 676.097 30.8749C676.097 30.4511 675.835 30.0765 675.447 29.9287L671.897 28.5687C671.79 28.5292 671.703 28.4405 671.664 28.3321L670.335 24.725C670.161 24.3603 669.802 24.1238 669.404 24.1238C669.006 24.1238 668.647 24.3603 668.473 24.725L667.144 28.3321C667.105 28.4405 667.018 28.5292 666.911 28.5687L663.361 29.9287C662.973 30.0765 662.711 30.4511 662.711 30.8749C662.711 31.2987 662.973 31.6732 663.361 31.821L666.911 33.1712C667.018 33.2106 667.105 33.2993 667.144 33.4078L668.483 37.0149H668.473Z" fill="#8EC641"/>
<path d="M501.767 51.9106C501.913 52.3048 502.281 52.571 502.698 52.571C503.116 52.571 503.484 52.3048 503.63 51.9106L504.959 48.3035C504.997 48.1951 505.085 48.1064 505.191 48.067L508.742 46.7167C509.13 46.5689 509.392 46.1944 509.392 45.7706C509.392 45.3468 509.13 44.9723 508.742 44.8245L505.191 43.4644C505.085 43.425 504.997 43.3363 504.959 43.2279L503.63 39.6207C503.455 39.2561 503.096 39.0195 502.698 39.0195C502.301 39.0195 501.942 39.2561 501.767 39.6207L500.438 43.2279C500.4 43.3363 500.312 43.425 500.206 43.4644L496.655 44.8245C496.267 44.9723 496.005 45.3468 496.005 45.7706C496.005 46.1944 496.267 46.5689 496.655 46.7167L500.206 48.067C500.312 48.1064 500.4 48.1951 500.438 48.3035L501.777 51.9106H501.767Z" fill="#8EC641"/>
<path d="M531.642 415.534C531.787 415.929 532.156 416.195 532.573 416.195C532.99 416.195 533.359 415.929 533.504 415.534L534.833 411.927C534.872 411.819 534.959 411.73 535.066 411.691L538.616 410.341C539.004 410.193 539.266 409.818 539.266 409.394C539.266 408.971 539.004 408.596 538.616 408.448L535.066 407.088C534.959 407.049 534.872 406.96 534.833 406.852L533.504 403.244C533.33 402.88 532.971 402.643 532.573 402.643C532.175 402.643 531.816 402.88 531.642 403.244L530.313 406.852C530.274 406.96 530.187 407.049 530.08 407.088L526.53 408.448C526.142 408.596 525.88 408.971 525.88 409.394C525.88 409.818 526.142 410.193 526.53 410.341L530.08 411.691C530.187 411.73 530.274 411.819 530.313 411.927L531.651 415.534H531.642Z" fill="#8EC641"/>
<path d="M40.8459 177.665C40.9914 178.059 41.36 178.325 41.7771 178.325C42.1942 178.325 42.5628 178.059 42.7083 177.665L44.0372 174.058C44.076 173.949 44.1633 173.861 44.27 173.821L47.8203 172.471C48.2084 172.323 48.4702 171.949 48.4702 171.525C48.4702 171.101 48.2084 170.727 47.8203 170.579L44.27 169.219C44.1633 169.179 44.076 169.091 44.0372 168.982L42.7083 165.375C42.5337 165.01 42.1748 164.774 41.7771 164.774C41.3794 164.774 41.0205 165.01 40.8459 165.375L39.517 168.982C39.4782 169.091 39.3908 169.179 39.2841 169.219L35.7339 170.579C35.3459 170.727 35.084 171.101 35.084 171.525C35.084 171.949 35.3459 172.323 35.7339 172.471L39.2841 173.821C39.3908 173.861 39.4782 173.949 39.517 174.058L40.8556 177.665H40.8459Z" fill="#8EC641"/>
<path d="M650.332 417.55C650.487 417.963 650.877 418.235 651.309 418.235C651.741 418.235 652.131 417.963 652.286 417.55L653.679 413.763C653.722 413.649 653.808 413.552 653.921 413.508L657.648 412.085C658.055 411.926 658.323 411.531 658.323 411.092C658.323 410.652 658.055 410.248 657.648 410.099L653.921 408.675C653.808 408.632 653.713 408.544 653.67 408.429L652.269 404.642C652.087 404.265 651.707 404.019 651.292 404.019C650.877 404.019 650.496 404.265 650.315 404.642L648.914 408.429C648.87 408.544 648.784 408.632 648.671 408.675L644.944 410.099C644.538 410.257 644.27 410.652 644.27 411.092C644.27 411.531 644.538 411.926 644.944 412.085L648.671 413.508C648.784 413.552 648.87 413.64 648.922 413.763L650.323 417.55H650.332Z" fill="#27AA27"/>
<path d="M700.215 435.997C700.371 436.41 700.76 436.683 701.192 436.683C701.625 436.683 702.014 436.41 702.17 435.997L703.562 432.21C703.605 432.096 703.692 431.999 703.804 431.955L707.531 430.532C707.938 430.374 708.206 429.978 708.206 429.539C708.206 429.1 707.938 428.696 707.531 428.546L703.804 427.123C703.692 427.079 703.596 426.991 703.553 426.877L702.152 423.09C701.971 422.712 701.59 422.466 701.175 422.466C700.76 422.466 700.379 422.712 700.198 423.09L698.797 426.877C698.754 426.991 698.667 427.079 698.555 427.123L694.827 428.546C694.421 428.704 694.153 429.1 694.153 429.539C694.153 429.978 694.421 430.374 694.827 430.532L698.555 431.955C698.667 431.999 698.754 432.087 698.805 432.21L700.206 435.997H700.215Z" fill="#27AA27"/>
<path d="M667.308 431.318C667.403 431.582 667.654 431.758 667.93 431.758C668.207 431.758 668.449 431.582 668.553 431.318L669.435 428.92C669.461 428.849 669.522 428.788 669.591 428.762L671.952 427.865C672.211 427.769 672.384 427.514 672.384 427.233C672.384 426.951 672.211 426.697 671.952 426.6L669.591 425.695C669.522 425.669 669.461 425.607 669.435 425.537L668.553 423.138C668.441 422.892 668.198 422.743 667.93 422.743C667.662 422.743 667.429 422.901 667.308 423.138L666.426 425.537C666.4 425.607 666.339 425.669 666.27 425.695L663.909 426.6C663.65 426.697 663.477 426.951 663.477 427.233C663.477 427.514 663.65 427.769 663.909 427.865L666.27 428.77C666.339 428.797 666.4 428.858 666.426 428.928L667.316 431.327L667.308 431.318Z" fill="#27AA27"/>
<path d="M678.43 413.517C678.56 413.868 678.888 414.105 679.26 414.105C679.632 414.105 679.961 413.868 680.09 413.517L681.275 410.301C681.31 410.204 681.388 410.125 681.483 410.09L684.648 408.886C684.994 408.754 685.227 408.421 685.227 408.043C685.227 407.665 684.994 407.331 684.648 407.199L681.483 405.987C681.388 405.952 681.31 405.872 681.275 405.776L680.09 402.56C679.935 402.235 679.615 402.024 679.26 402.024C678.906 402.024 678.586 402.235 678.43 402.56L677.245 405.776C677.211 405.872 677.133 405.952 677.038 405.987L673.872 407.199C673.526 407.331 673.293 407.665 673.293 408.043C673.293 408.421 673.526 408.754 673.872 408.886L677.038 410.09C677.133 410.125 677.211 410.204 677.245 410.301L678.439 413.517H678.43Z" fill="#8EC641"/>
<path d="M85.6677 434.674C85.8585 435.18 86.3355 435.514 86.8656 435.514C87.3956 435.514 87.8727 435.18 88.0635 434.674L89.7703 430.032C89.8233 429.892 89.9293 429.773 90.0671 429.719L94.6361 427.975C95.1344 427.781 95.463 427.296 95.463 426.757C95.463 426.219 95.1344 425.723 94.6361 425.54L90.0671 423.795C89.9293 423.742 89.8127 423.634 89.7596 423.494L88.0423 418.852C87.8197 418.389 87.3532 418.087 86.8444 418.087C86.3355 418.087 85.8691 418.389 85.6465 418.852L83.9291 423.494C83.8761 423.634 83.7701 423.742 83.6322 423.795L79.0632 425.54C78.565 425.734 78.2363 426.219 78.2363 426.757C78.2363 427.296 78.565 427.781 79.0632 427.975L83.6322 429.719C83.7701 429.773 83.8761 429.881 83.9397 430.032L85.6571 434.674H85.6677Z" fill="#27AA27"/>
<path d="M106.478 451.552C106.594 451.875 106.902 452.09 107.241 452.09C107.58 452.09 107.877 451.875 108.004 451.552L109.085 448.611C109.117 448.525 109.191 448.45 109.276 448.417L112.17 447.319C112.488 447.2 112.7 446.888 112.7 446.543C112.7 446.199 112.488 445.886 112.17 445.768L109.276 444.658C109.191 444.626 109.117 444.551 109.085 444.464L108.004 441.524C107.866 441.222 107.569 441.039 107.241 441.039C106.912 441.039 106.626 441.233 106.478 441.524L105.396 444.464C105.364 444.551 105.29 444.626 105.205 444.658L102.311 445.768C101.993 445.886 101.781 446.199 101.781 446.543C101.781 446.888 101.993 447.2 102.311 447.319L105.205 448.428C105.29 448.46 105.364 448.536 105.396 448.622L106.488 451.562L106.478 451.552Z" fill="#27AA27"/>
<path d="M120.11 429.73C120.27 430.161 120.672 430.452 121.128 430.452C121.584 430.452 121.987 430.161 122.146 429.73L123.598 425.788C123.641 425.67 123.736 425.573 123.853 425.529L127.733 424.054C128.157 423.892 128.443 423.483 128.443 423.02C128.443 422.557 128.157 422.147 127.733 421.986L123.853 420.5C123.736 420.456 123.641 420.359 123.598 420.241L122.146 416.299C121.955 415.9 121.563 415.642 121.128 415.642C120.694 415.642 120.301 415.9 120.11 416.299L118.658 420.241C118.616 420.359 118.52 420.456 118.404 420.5L114.524 421.986C114.1 422.147 113.813 422.557 113.813 423.02C113.813 423.483 114.1 423.892 114.524 424.054L118.404 425.529C118.52 425.573 118.616 425.67 118.658 425.788L120.121 429.73H120.11Z" fill="#8EC641"/>
<path d="M638.051 74.9536C636.637 61.4382 630.824 49.7032 623.79 49.0326C611.238 47.8533 613.952 57.3916 605.358 56.2123C595.304 54.8365 602.123 38.9741 585.929 38.4191C569.736 37.8642 576.815 55.0909 566.286 60.3282C558.845 64.0395 557.059 55.7614 546.938 61.2416C542.833 63.4614 540.356 68.7451 539.293 74.9421H638.062L638.051 74.9536Z" fill="#B0D57C"/>
<path d="M191.761 390.254C190.348 403.77 184.535 415.505 177.501 416.175C164.949 417.354 167.663 407.816 159.068 408.995C149.015 410.371 155.834 426.234 139.64 426.789C123.447 427.344 130.526 410.117 119.997 404.88C112.556 401.168 110.77 409.446 100.648 403.966C96.5435 401.746 94.0669 396.463 93.0039 390.266H191.773L191.761 390.254Z" fill="#B0D57C"/>
<path d="M70.4458 214.319C64.3583 212.874 59.0727 206.931 58.7707 199.741C58.2396 186.908 62.5357 189.683 62.0046 180.897C61.3849 170.619 54.2402 177.591 53.9903 161.036C53.7403 144.481 61.4994 151.718 63.8584 140.955C65.53 133.348 61.8015 131.521 64.2698 121.175C65.2696 116.978 67.6494 114.446 70.4406 113.36L70.4406 214.33L70.4458 214.319Z" fill="#B0D57C"/>
<path d="M645.988 294.847C652.075 293.402 657.361 287.46 657.663 280.269C658.194 267.437 653.898 270.211 654.429 261.425C655.049 251.148 662.193 258.119 662.443 241.564C662.693 225.009 654.934 232.246 652.575 221.483C650.904 213.877 654.632 212.05 652.164 201.703C651.164 197.507 648.784 194.975 645.993 193.888L645.993 294.859L645.988 294.847Z" fill="#B0D57C"/>
<path d="M622.819 35.3253C622.819 42.4219 628.29 56.5291 635.191 56.3687C640.84 56.238 647.814 42.4279 647.816 35.3312C647.816 28.2346 643.909 16.1444 635.301 16.1058C626.368 16.0701 622.822 28.2286 622.822 35.3223" fill="#269035"/>
<path d="M635.623 25.3975C635.623 25.3975 635.623 45.0041 635.623 59.3926C635.623 68.8256 635.623 76.1925 635.623 76.1925" stroke="#7EC680" stroke-width="3.15352" stroke-miterlimit="10" stroke-linecap="round"/>
<path d="M644.158 32.8308L635.623 48.3171" stroke="#7EC680" stroke-width="3.15352" stroke-miterlimit="10" stroke-linecap="round"/>
<path d="M628.307 30.353L635.623 39.6448" stroke="#7EC680" stroke-width="3.15352" stroke-miterlimit="10" stroke-linecap="round"/>
<path d="M643.752 146.689C645.065 145.883 652.172 128.966 663.809 135.762C670.165 139.474 671.543 136.741 670.698 133.529C669.973 130.77 666.496 128.747 670.362 127.309C683.088 122.573 689.785 110.642 680.593 109.906C675.625 109.506 676.869 103.443 680.06 102.168C686.831 99.4648 690.198 94.515 685.168 92.4498C680.226 90.4191 678.332 87.4039 680.743 85.2452C683.151 83.0892 689.344 81.7871 685.93 76.5385C684.585 74.4706 678.44 74.089 674.621 77.4511C672.447 79.3696 667.394 87.1158 665.584 79.9246C663.717 72.5146 659.021 76.5279 658.562 80.7118C658.391 82.2701 655.691 96.5697 652.847 92.7326C649.485 88.2044 645.402 90.8621 645.966 98.0879C646.221 101.37 648.913 108.321 646.121 108.329C643.332 108.337 639.456 109.26 639.931 114.282C640.75 122.941 646.486 145.019 643.755 146.694L643.752 146.689Z" fill="#B8D99C"/>
<path d="M681.554 77.3257C681.554 77.3257 664.578 89.0209 656.744 111.467C649.937 130.967 647.452 140.789 641.674 150.988" stroke="white" stroke-width="0.85142" stroke-miterlimit="10" stroke-linecap="round"/>
<path d="M679.235 95.2568C679.235 95.2568 670.246 96.1054 661.991 99.849" stroke="white" stroke-width="0.85142" stroke-miterlimit="10" stroke-linecap="round"/>
<path d="M663.21 79.9246C663.218 79.8072 661.07 93.1275 660.321 103.032" stroke="white" stroke-width="0.85142" stroke-miterlimit="10" stroke-linecap="round"/>
<path d="M665.826 117.513C662.627 118.205 658.695 119.024 653.902 119.987" stroke="white" stroke-width="0.85142" stroke-miterlimit="10" stroke-linecap="round"/>
<path d="M648.968 93.2637C648.968 93.2637 654.872 110.05 656.111 113.247" stroke="white" stroke-width="0.85142" stroke-miterlimit="10" stroke-linecap="round"/>
<path d="M643.101 112.278C643.101 112.278 650.226 124.464 649.259 133.377" stroke="white" stroke-width="0.85142" stroke-miterlimit="10" stroke-linecap="round"/>
<path d="M8.50209 360.717C7.28738 360.105 5.72019 360.26 4.67391 361.141C3.62763 362.021 3.18181 363.586 3.64583 364.88C4.29668 366.69 6.47692 367.473 8.31395 367.946C11.2482 368.699 13.5964 369.172 16.3989 368.005C14.0159 368.056 13.0764 365.97 11.7054 364.232C10.7121 362.974 9.92283 361.434 8.50026 360.715L8.50209 360.717Z" fill="#A1CA38"/>
<path d="M55.4488 359.026C55.7722 362.955 56.092 366.884 56.4154 370.813C53.9171 369.001 51.3811 367.157 49.4775 364.709C47.5739 362.261 46.3559 359.084 46.9052 356.014C47.275 353.952 48.7746 351.849 50.8374 351.808C52.4018 351.775 53.7878 352.968 54.4829 354.393C55.1762 355.817 55.3172 357.444 55.4487 359.03L55.4488 359.026Z" fill="#A1CA38"/>
<path d="M59.9891 383.822C61.1112 380.536 62.4139 375.131 63.3592 373.965C60.6065 374.576 57.8143 375.203 55.4965 376.597C53.1787 377.991 51.3605 380.279 51.2442 383.155C51.1655 385.087 52.156 387.488 54.1073 388.315C55.5885 388.945 57.1535 388.442 58.1099 387.472C59.0664 386.502 59.5396 385.143 59.991 383.82L59.9891 383.822Z" fill="#A1CA38"/>
<path d="M85.2629 389.093L85.2514 389.103C85.0841 389.25 84.8285 389.229 84.6843 389.059C84.59 388.948 74.9918 377.757 52.2025 369.473C33.4614 362.661 12.8795 369.522 12.6743 369.592C12.4634 369.663 12.2355 369.547 12.1636 369.334C12.0937 369.12 12.2066 368.887 12.4175 368.815C12.6246 368.744 33.472 361.792 52.4734 368.702C75.4844 377.067 85.1994 388.414 85.2955 388.527C85.4361 388.693 85.421 388.944 85.2629 389.093Z" fill="#A1CA38"/>
<path d="M15.6757 368.122C15.6862 368.091 14.9405 368.255 14.707 368.289C12.414 368.835 10.7046 369.329 8.37054 370.372C6.94745 371.007 5.55565 371.798 4.51705 372.976C3.47859 374.151 2.83402 375.765 3.0985 377.319C3.36297 378.873 4.68706 380.265 6.24103 380.296C7.50914 380.319 8.66669 379.483 9.43035 378.451C10.194 377.419 10.7625 376.244 11.2114 375.036C12.2744 372.181 12.5118 370.128 15.932 368.419L15.6775 368.124L15.6757 368.122Z" fill="#A1CA38"/>
<path d="M25.797 366.443C23.0242 366.703 21.3854 367.785 19.7137 369.388C17.8263 371.195 16.9217 374.131 17.2801 376.738C17.4844 378.215 18.4915 379.786 19.9587 379.803C21.4166 379.823 22.4446 378.338 22.9138 376.936C23.5547 375.027 23.6767 372.982 24.0784 371.007C24.4255 369.299 24.8513 367.719 25.9707 366.52L25.797 366.443Z" fill="#A1CA38"/>
<path d="M49.6107 368.854C45.6818 369.221 43.3606 370.757 40.9912 373.025C38.3172 375.584 37.0337 379.745 37.5425 383.436C37.8313 385.527 39.2576 387.754 41.3359 387.778C43.4011 387.803 44.8594 385.703 45.5254 383.715C46.4323 381.011 46.6051 378.114 47.1756 375.315C47.6685 372.894 48.2716 370.657 49.8576 368.96L49.6127 368.852L49.6107 368.854Z" fill="#A1CA38"/>
<path d="M46.173 367.226C44.2377 365.462 43.269 362.967 42.4307 360.312C41.433 357.156 40.8317 353.838 39.2953 350.916C38.4941 349.394 37.4086 347.969 35.9216 347.132C34.4344 346.3 32.4955 346.159 31.0676 347.1C29.5253 348.116 28.895 350.183 29.1354 352.033C29.3758 353.884 30.3425 355.552 31.4268 357.059C34.9287 361.926 39.6163 365.473 45.1388 367.44C45.5154 367.362 45.8752 367.285 46.1731 367.222L46.173 367.226Z" fill="#A1CA38"/>
<path d="M37.3451 366.01C36.2882 367.278 34.8411 374.782 34.1318 376.733C33.7626 377.75 33.2052 378.733 32.3501 379.383C31.495 380.032 30.2998 380.288 29.3362 379.829C28.2922 379.333 27.7256 378.103 27.7198 376.931C27.714 375.758 28.1764 374.635 28.7245 373.603C30.4932 370.268 33.1136 367.651 36.3833 365.941C36.6242 365.958 37.1579 365.997 37.3451 366.01Z" fill="#A1CA38"/>
<path d="M25.7327 366.447C23.0935 363.983 22.281 359.565 19.9563 356.699C18.9352 355.438 17.314 354.416 15.7789 354.898C14.2402 355.38 13.4512 357.269 13.738 358.875C14.0229 360.484 15.1304 361.819 16.3563 362.876C18.6242 364.835 21.4514 366.115 24.3979 366.548C24.7304 366.457 25.3701 366.549 25.7327 366.447Z" fill="#A1CA38"/>
<path d="M700.828 132.764C702.043 132.152 703.61 132.308 704.657 133.188C705.703 134.068 706.149 135.633 705.685 136.928C705.034 138.737 702.854 139.52 701.017 139.993C698.082 140.747 695.734 141.219 692.932 140.052C695.315 140.104 696.254 138.017 697.625 136.279C698.618 135.021 699.408 133.481 700.83 132.762L700.828 132.764Z" fill="#A1CA38"/>
<path d="M653.882 131.073C653.558 135.002 653.239 138.931 652.915 142.859C655.413 141.048 657.949 139.204 659.853 136.756C661.757 134.308 662.975 131.131 662.425 128.061C662.056 125.999 660.556 123.896 658.493 123.855C656.929 123.821 655.543 125.014 654.848 126.44C654.154 127.864 654.013 129.491 653.882 131.077L653.882 131.073Z" fill="#A1CA38"/>
<path d="M649.341 155.869C648.219 152.583 646.917 147.179 645.971 146.012C648.724 146.623 651.516 147.25 653.834 148.644C656.152 150.038 657.97 152.326 658.086 155.202C658.165 157.134 657.175 159.535 655.223 160.362C653.742 160.992 652.177 160.489 651.221 159.519C650.264 158.549 649.791 157.191 649.34 155.867L649.341 155.869Z" fill="#A1CA38"/>
<path d="M624.068 161.14L624.079 161.151C624.246 161.297 624.502 161.276 624.646 161.106C624.741 160.995 634.339 149.804 657.128 141.52C675.869 134.708 696.451 141.569 696.656 141.639C696.867 141.71 697.095 141.594 697.167 141.382C697.237 141.167 697.124 140.934 696.913 140.862C696.706 140.791 675.859 133.839 656.857 140.749C633.846 149.114 624.131 160.461 624.035 160.574C623.894 160.74 623.91 160.991 624.068 161.14Z" fill="#A1CA38"/>
<path d="M693.655 140.169C693.644 140.138 694.39 140.302 694.624 140.337C696.917 140.882 698.626 141.376 700.96 142.419C702.383 143.054 703.775 143.845 704.814 145.023C705.852 146.198 706.497 147.812 706.232 149.366C705.968 150.92 704.644 152.313 703.09 152.343C701.821 152.366 700.664 151.531 699.9 150.499C699.137 149.467 698.568 148.291 698.119 147.083C697.056 144.228 696.819 142.175 693.399 140.466L693.653 140.171L693.655 140.169Z" fill="#A1CA38"/>
<path d="M683.534 138.49C686.306 138.75 687.945 139.832 689.617 141.435C691.504 143.242 692.409 146.178 692.05 148.785C691.846 150.262 690.839 151.833 689.372 151.851C687.914 151.87 686.886 150.385 686.417 148.983C685.776 147.074 685.654 145.029 685.252 143.054C684.905 141.346 684.479 139.767 683.36 138.567L683.534 138.49Z" fill="#A1CA38"/>
<path d="M659.72 140.901C663.649 141.268 665.97 142.803 668.339 145.072C671.013 147.63 672.297 151.792 671.788 155.483C671.499 157.574 670.073 159.801 667.995 159.825C665.929 159.85 664.471 157.75 663.805 155.762C662.898 153.057 662.725 150.16 662.155 147.362C661.662 144.941 661.059 142.704 659.473 141.007L659.718 140.899L659.72 140.901Z" fill="#A1CA38"/>
<path d="M663.158 139.273C665.093 137.51 666.062 135.014 666.9 132.359C667.898 129.203 668.499 125.885 670.035 122.963C670.836 121.441 671.922 120.016 673.409 119.179C674.896 118.347 676.835 118.206 678.263 119.147C679.805 120.163 680.436 122.23 680.195 124.08C679.955 125.931 678.988 127.599 677.904 129.106C674.402 133.973 669.714 137.52 664.192 139.487C663.815 139.409 663.455 139.332 663.157 139.269L663.158 139.273Z" fill="#A1CA38"/>
<path d="M671.986 138.057C673.043 139.325 674.49 146.829 675.199 148.781C675.568 149.797 676.126 150.781 676.981 151.43C677.836 152.079 679.031 152.336 679.995 151.876C681.039 151.38 681.605 150.15 681.611 148.978C681.617 147.805 681.155 146.683 680.607 145.65C678.838 142.315 676.217 139.698 672.948 137.988C672.707 138.005 672.173 138.044 671.986 138.057Z" fill="#A1CA38"/>
<path d="M683.598 138.494C686.237 136.03 687.05 131.612 689.374 128.746C690.395 127.485 692.017 126.463 693.552 126.945C695.09 127.427 695.879 129.316 695.593 130.922C695.308 132.531 694.2 133.867 692.974 134.923C690.706 136.883 687.879 138.162 684.933 138.595C684.6 138.504 683.96 138.596 683.598 138.494Z" fill="#A1CA38"/>
<path d="M689.885 255.214L689.885 180.26C689.885 180.26 721.296 198.299 721.296 211.406C721.296 223.603 699.122 224.062 698.012 231.848C696.902 239.635 701.353 238.204 701.341 244.504C701.323 250.426 689.885 255.214 689.885 255.214Z" fill="#E7F3F7"/>
<path d="M29.7975 338.684C20.6035 334.682 12.1046 327.769 9.95242 324.276C3.75803 314.228 17.5124 315.027 16.4516 306.943C15.2078 297.497 0.843729 303.902 0.343786 288.676C-0.156157 273.45 15.4396 280.102 20.1829 270.197C23.5362 263.198 16.9759 264.127 21.9387 254.606C23.0484 252.481 26.2309 249.675 29.8036 247.414L29.8036 338.684L29.7975 338.684Z" fill="#E7F3F7"/>
<path d="M55.8066 359.485C60.2217 359.186 70.4877 353.437 70.4319 350.711C70.3761 347.985 59.8958 342.97 55.4756 343.214C49.4519 343.551 43.5595 347.608 43.6549 352.1C43.7503 356.592 50.3676 359.858 55.8145 359.477" fill="#3CB54A"/>
<path d="M29.888 339.841C34.3031 339.543 48.7077 335.833 48.6527 333.092C48.5969 330.366 37.4524 325.227 33.0724 324.606C24.955 323.465 16.6676 327.446 16.7629 331.938C16.8583 336.43 24.4417 340.206 29.8959 339.834" fill="#3CB54A"/>
<path d="M81.2751 319.017C81.3712 323.818 77.7299 333.004 73.0123 333.095C68.2939 333.2 64.2754 324.164 64.1865 319.371C64.0903 314.57 67.8387 310.603 72.5492 310.505C77.2748 310.407 81.1789 314.215 81.2758 319.001" fill="#3CB54A"/>
<path d="M60.7377 301.032C60.5148 305.818 55.878 315.614 53.564 315.596C51.3412 315.582 47.737 305.498 48.0367 300.7C48.4126 294.591 51.7519 286.821 55.2533 287.175C58.2165 287.48 61.0189 294.996 60.7377 301.032Z" fill="#3CB54A"/>
<path d="M42.8093 295.705C45.9707 301.397 48.6372 314.12 44.5294 316.484C40.4144 318.839 31.082 309.942 27.9205 304.25C24.759 298.559 25.5277 292.027 29.6428 289.672C33.7578 287.317 39.655 290.022 42.8165 295.714" fill="#3CB54A"/>
<path d="M37.4063 303.314C37.4063 303.314 43.7363 318.798 60.6358 335.254C71.7227 346.046 80.9053 355.052 80.9053 355.052" stroke="#7EC680" stroke-width="1.41055" stroke-miterlimit="10" stroke-linecap="round"/>
<path d="M72.96 315.221L73.9217 347.869" stroke="#7EC680" stroke-width="1.41055" stroke-miterlimit="10" stroke-linecap="round"/>
<path d="M53.425 300.92C50.8722 313.385 57.5237 332.102 57.5237 332.102" stroke="#7EC680" stroke-width="1.41055" stroke-miterlimit="10" stroke-linecap="round"/>
<path d="M49.5679 351.526C59.4547 348.52 75.7387 350.726 75.7387 350.726" stroke="#7EC680" stroke-width="1.41055" stroke-miterlimit="10" stroke-linecap="round"/>
<path d="M28.7358 331.051C28.7358 331.051 45.4203 331.853 53.7751 335.582C62.1219 339.317 68.3572 342.774 68.3572 342.774" stroke="#7EC680" stroke-width="1.41055" stroke-miterlimit="10" stroke-linecap="round"/>
<path d="M587.079 403.649C585.359 400.746 578.027 395.741 576.249 396.719C574.47 397.697 574.778 406.56 576.463 409.485C578.762 413.47 583.47 416.082 586.399 414.468C589.328 412.854 589.2 407.223 587.071 403.646" fill="#3CB54A"/>
<path d="M583.062 428.068C581.343 425.165 573.929 416.638 572.141 417.621C570.362 418.599 570.816 427.958 571.917 431.154C573.964 437.073 579.447 441.342 582.377 439.728C585.306 438.114 585.181 431.649 583.055 428.065" fill="#3CB54A"/>
<path d="M551.609 400.267C554.742 398.546 562.056 397.857 563.742 401.037C565.439 404.213 560.866 410.065 557.736 411.778C554.602 413.499 550.694 412.315 549.005 409.143C547.311 405.959 548.476 401.988 551.598 400.272" fill="#3CB54A"/>
<path d="M546.831 420.45C550.064 418.951 558.123 418.729 558.909 420.311C559.666 421.829 554.259 427.76 550.991 429.211C546.833 431.061 540.558 431.468 539.584 428.962C538.763 426.839 542.753 422.34 546.831 420.45Z" fill="#3CB54A"/>
<path d="M549.501 434.491C552.164 430.376 559.635 424.174 562.61 426.155C565.582 428.144 562.933 437.565 560.27 441.68C557.607 445.795 553.035 447.524 550.063 445.535C547.09 443.546 546.841 438.599 549.504 434.484" fill="#3CB54A"/>
<path d="M556.382 435.545C556.382 435.545 564.41 425.897 569.434 408.717C572.727 397.448 575.5 388.091 575.5 388.091" stroke="#7EC680" stroke-width="1.41055" stroke-miterlimit="10" stroke-linecap="round"/>
<path d="M551.973 407.236L573.171 395.323" stroke="#7EC680" stroke-width="1.41055" stroke-miterlimit="10" stroke-linecap="round"/>
<path d="M549.278 425.467C558.379 422.906 568.428 411.923 568.428 411.923" stroke="#7EC680" stroke-width="1.41055" stroke-miterlimit="10" stroke-linecap="round"/>
<path d="M583.981 410.641C578.589 404.947 574.429 393.101 574.429 393.101" stroke="#7EC680" stroke-width="1.41055" stroke-miterlimit="10" stroke-linecap="round"/>
<path d="M577.663 431.883C577.663 431.883 572.438 420.248 572.016 413.275C571.601 406.305 571.73 400.868 571.73 400.868" stroke="#7EC680" stroke-width="1.41055" stroke-miterlimit="10" stroke-linecap="round"/>
<path d="M657.244 223.211C652.829 222.913 642.563 217.163 642.619 214.437C642.675 211.711 653.155 206.697 657.575 206.94C663.599 207.277 669.491 211.334 669.396 215.826C669.301 220.318 662.683 223.584 657.236 223.204" fill="#3CB54A"/>
<path d="M683.163 203.568C678.748 203.269 664.343 199.56 664.398 196.818C664.454 194.092 675.598 188.953 679.978 188.332C688.096 187.192 696.383 191.172 696.288 195.664C696.193 200.156 688.609 203.932 683.155 203.56" fill="#3CB54A"/>
<path d="M631.776 182.743C631.68 187.544 635.321 196.731 640.039 196.821C644.757 196.927 648.776 187.891 648.865 183.097C648.961 178.296 645.213 174.329 640.502 174.231C635.776 174.133 631.872 177.942 631.776 182.728" fill="#3CB54A"/>
<path d="M652.314 164.759C652.536 169.545 657.173 179.341 659.487 179.322C661.71 179.308 665.314 169.224 665.015 164.426C664.639 158.317 661.299 150.547 657.798 150.902C654.835 151.206 652.032 158.722 652.314 164.759Z" fill="#3CB54A"/>
<path d="M670.242 159.432C667.08 165.123 664.414 177.847 668.521 180.21C672.636 182.565 681.969 173.668 685.13 167.977C688.292 162.285 687.523 155.754 683.408 153.399C679.293 151.043 673.396 153.748 670.234 159.44" fill="#3CB54A"/>
<path d="M675.644 167.041C675.644 167.041 669.314 182.524 652.415 198.98C641.328 209.772 632.146 218.778 632.146 218.778" stroke="#7EC680" stroke-width="1.41055" stroke-miterlimit="10" stroke-linecap="round"/>
<path d="M640.091 178.947L639.129 211.595" stroke="#7EC680" stroke-width="1.41055" stroke-miterlimit="10" stroke-linecap="round"/>
<path d="M659.626 164.646C662.179 177.111 655.528 195.829 655.528 195.829" stroke="#7EC680" stroke-width="1.41055" stroke-miterlimit="10" stroke-linecap="round"/>
<path d="M663.483 215.252C653.596 212.246 637.312 214.453 637.312 214.453" stroke="#7EC680" stroke-width="1.41055" stroke-miterlimit="10" stroke-linecap="round"/>
<path d="M684.315 194.777C684.315 194.777 667.63 195.579 659.276 199.308C650.929 203.044 644.694 206.5 644.694 206.5" stroke="#7EC680" stroke-width="1.41055" stroke-miterlimit="10" stroke-linecap="round"/>
<path d="M601.333 62.1605L603.184 62.7684C603.184 62.7684 604.103 60.2577 604.106 59.7622C604.108 59.5062 602.02 59.3441 602.005 59.6996C601.982 60.3425 601.333 62.1605 601.333 62.1605Z" fill="#F2F8E8"/>
<path d="M614.031 62.7021L615.884 62.5769C615.884 62.5769 615.615 60.5912 615.448 60.1325C615.363 59.8949 613.307 59.6168 613.418 59.9483C613.619 60.5488 614.031 62.7021 614.031 62.7021Z" fill="#F2F8E8"/>
<path d="M601.26 60.3554C601.356 60.4843 603.867 60.9724 604.043 60.908C604.218 60.8435 605.968 50.1838 606.517 47.8353C607.067 45.4867 609.15 42.1416 609.311 42.1287C609.472 42.1158 609.813 45.3007 610.214 48.491C610.522 50.9501 612.921 60.6998 613.051 60.8122C613.182 60.9227 615.841 61.1198 616.01 61.0038C616.177 60.8859 614.418 50.8561 614.117 47.9863C613.816 45.1165 613.599 36.844 613.599 36.844L604.744 37.4205C604.744 37.4205 603.372 43.3573 602.793 46.9437C602.217 50.5301 601.165 60.2301 601.262 60.3591" fill="#2D765F"/>
<g style="mix-blend-mode:multiply" opacity="0.2">
<g style="mix-blend-mode:multiply" opacity="0.2">
<g style="mix-blend-mode:multiply" opacity="0.2">
<path d="M612.158 34.2451C612.925 32.2355 613.391 32.707 613.817 29.4301L613.886 29.1777C614 33.2909 613.826 37.8075 613.826 37.8075C613.826 37.8075 613.064 37.8757 611.697 37.9052C611.686 36.7742 611.725 35.3853 612.16 34.2451" fill="#333333"/>
</g>
</g>
</g>
<g style="mix-blend-mode:multiply" opacity="0.2">
<g style="mix-blend-mode:multiply" opacity="0.2">
<g style="mix-blend-mode:multiply" opacity="0.2">
<path d="M608.678 40.7988C608.917 40.8522 609.149 41.7143 609.311 42.1288C609.149 42.1416 607.066 45.4867 606.517 47.8353C606.209 49.1542 605.522 53.0887 604.949 56.2993C604.207 56.0672 604.907 51.8159 605.103 50.6315C605.989 45.2528 607.822 40.6091 608.678 40.7988Z" fill="#333333"/>
</g>
</g>
</g>
<path fill-rule="evenodd" clip-rule="evenodd" d="M616.203 62.8475C616.203 63.0667 616.203 63.4075 616.132 63.8275C615.885 63.8275 614.076 63.8312 609.886 63.8275C609.714 63.2381 609.714 63.0225 610.084 62.8733C610.456 62.6983 613.688 61.7663 613.688 61.7663C613.748 61.7387 613.833 61.7516 613.858 61.8123C613.858 61.8123 613.869 61.84 613.9 61.9192C614.007 62.1881 614.205 62.4147 614.205 62.4147C614.549 62.5805 615.432 62.5915 615.661 62.4276C615.896 62.2599 615.873 61.9505 615.971 61.9505C616.143 61.9505 616.101 62.0002 616.137 62.1347C616.137 62.1402 616.201 62.6652 616.201 62.8457" fill="#6F6E70"/>
<path fill-rule="evenodd" clip-rule="evenodd" d="M614.256 62.4368C614.345 62.9029 614.653 63.2492 615.019 63.2473C615.4 63.2473 615.659 62.8752 615.719 62.3816C615.703 62.3982 615.686 62.4147 615.665 62.4295C615.445 62.5861 614.628 62.5824 614.256 62.4368Z" fill="#979798"/>
<path fill-rule="evenodd" clip-rule="evenodd" d="M603.62 62.9508C603.582 63.1663 603.526 63.5016 603.385 63.9031C603.142 63.8589 601.358 63.5476 597.231 62.8127C597.161 62.203 597.199 61.9893 597.589 61.9083C597.984 61.8014 601.327 61.4477 601.327 61.4477C601.39 61.4312 601.472 61.457 601.488 61.5233C601.488 61.5233 601.494 61.5527 601.512 61.6356C601.572 61.9193 601.728 62.1772 601.728 62.1772C602.039 62.4001 602.908 62.564 603.16 62.4443C603.421 62.319 603.45 62.0114 603.546 62.028C603.715 62.0575 603.666 62.0998 603.678 62.238C603.678 62.2435 603.651 62.7722 603.62 62.949" fill="#6F6E70"/>
<path fill-rule="evenodd" clip-rule="evenodd" d="M601.771 62.2065C601.781 62.6818 602.025 63.076 602.386 63.1386C602.761 63.2049 603.08 62.8844 603.222 62.4073C603.204 62.4221 603.184 62.435 603.16 62.446C602.919 62.5621 602.112 62.4165 601.771 62.2065Z" fill="#979798"/>
<path d="M612.576 21.8242C611.81 21.6271 609.108 21.8298 608.617 21.8298C608.541 21.8298 608.466 21.8298 608.392 21.8298C608.347 21.8371 608.305 21.8426 608.267 21.8482C607.466 21.955 607.112 22.0968 606.822 22.6329C606.14 23.8928 606.075 25.5782 606.075 25.5782C606.075 25.5782 602.906 38.0394 603.397 38.0855C603.889 38.1315 605.903 37.8423 608.958 37.9068C612.013 37.9694 613.824 37.8092 613.824 37.8092C613.824 37.8092 614.252 26.7258 613.327 23.4747C613.048 22.4929 612.872 22.0545 612.576 21.8261" fill="#61BD67"/>
<path d="M608.617 21.8281C608.539 21.8281 608.463 21.8281 608.389 21.8262C608.347 21.8336 608.303 21.8409 608.269 21.8446C608.184 21.8557 608.106 21.8686 608.03 21.8815C607.966 21.9367 607.827 22.1154 607.93 22.5317C608.178 23.5282 609.357 26.1568 609.357 26.1568C609.357 26.1568 611.349 23.3993 611.842 22.3972C611.951 22.1744 611.964 21.9367 611.977 21.7507C610.883 21.6936 609.02 21.8281 608.619 21.8281" fill="#C6E8C8"/>
<path d="M597.977 28.3636C597.123 27.846 596.32 27.2602 596.32 27.2602C595.787 26.75 595.495 26.1716 595.495 26.1716C595.495 26.1716 595.056 25.2432 594.748 24.8287C594.668 24.7219 594.539 24.6003 594.539 24.6003C594.257 24.733 594.755 25.6521 594.768 25.7774C594.779 25.9026 594.079 26.645 592.812 26.2637C592.226 26.0868 592.248 26.4994 592.688 26.6929C592.754 26.7205 592.732 26.7665 592.777 26.8329C592.806 26.8734 592.881 26.9047 592.9 26.9176C593.368 27.2013 594.284 27.3376 594.837 27.1128C594.837 27.1128 595.897 28.3599 597.072 29.6198L597.977 28.3617V28.3636Z" fill="#FBBCA2"/>
<path d="M609.541 33.5439C609.509 33.5276 609.541 33.5439 609.541 33.5439V33.5439Z" fill="#61BD67"/>
<g style="mix-blend-mode:multiply" opacity="0.2">
<g style="mix-blend-mode:multiply" opacity="0.2">
<g style="mix-blend-mode:multiply" opacity="0.2">
<path d="M610.905 30.0415C610.501 31.3659 610.845 32.729 610.952 33.1489C611.346 34.7073 612.016 34.9578 612.018 36.1625C612.018 36.9785 611.714 37.4942 611.541 37.9068C613.004 37.8792 613.826 37.8055 613.826 37.8055C613.826 37.8055 614.074 31.3843 613.784 26.8843C612.578 27.284 611.327 28.6563 610.907 30.0415" fill="#333333"/>
</g>
</g>
</g>
<path d="M607.47 33.2502L608.472 33.3441C608.63 33.3589 608.773 33.252 608.806 33.0955L609.486 29.8462L607.107 29.6233L607.19 32.9444C607.194 33.1047 607.315 33.2355 607.473 33.2502" fill="#F2F8E8"/>
<path d="M607.103 29.6289C607.098 29.6915 607.631 29.7929 608.28 29.8536C608.927 29.9144 609.476 29.9144 609.483 29.8518C609.489 29.7892 608.943 29.7486 608.296 29.6879C607.649 29.6271 607.11 29.5663 607.105 29.6289" fill="#C6E8C8"/>
<path d="M606.996 31.8724C606.996 31.8724 606.987 31.3825 607.045 31.283C606.895 31.0638 606.928 30.8022 607.151 30.7801C607.368 30.758 607.446 31.0804 607.897 31.1927C608.066 31.2351 608.42 31.2701 608.614 31.2204C608.916 31.1301 608.924 30.9975 609.02 30.9514C609.132 30.898 609.257 30.9109 609.348 30.9735C609.562 31.1227 609.143 31.4027 609.37 31.8632C609.431 31.9369 610.207 32.2003 610.802 32.3624L610.987 33.8581C610.74 33.7329 610.104 33.4695 609.85 33.3663C609.428 33.195 609.174 33.0698 608.891 32.9371C608.563 33.16 607.6 32.6111 607.308 32.4858C606.938 32.3274 606.94 32.053 606.996 31.8743" fill="#FBBCA2"/>
<path d="M617.232 28.8018C616.828 27.2895 615.829 24.2189 614.582 22.9553C614.201 22.5703 613.773 22.2848 613.389 22.0785C613.17 22.0011 612.898 21.9109 612.599 21.828C612.515 21.804 612.403 21.7874 612.272 21.7727C612.22 23.0732 612.508 25.0662 612.867 26.7664L612.637 26.8456C612.637 26.8456 612.988 27.7537 613.373 28.8018C613.496 29.2162 613.612 29.5423 613.712 29.7449C614.033 30.6585 614.306 31.5095 614.328 31.8043C614.382 32.5429 614.272 33.1287 613.22 32.8818C612.171 32.635 610.082 31.819 610.082 31.819L609.54 33.5394C609.584 33.5579 609.761 33.6315 610.37 33.8986C611.389 34.3462 615.017 35.7756 615.945 35.7259C617.187 35.6596 617.858 34.7239 617.992 32.7529C618.054 31.8411 617.666 30.2478 617.231 28.7981" fill="#61BD67"/>
<path d="M608.617 21.8281C608.539 21.8281 608.463 21.8281 608.389 21.8262C608.347 21.8336 608.303 21.8409 608.269 21.8446C608.184 21.8557 608.106 21.8686 608.03 21.8815C607.966 21.9367 607.827 22.1154 607.93 22.5317C608.178 23.5282 609.357 26.1568 609.357 26.1568C609.357 26.1568 611.349 23.3993 611.842 22.3972C611.951 22.1744 611.964 21.9367 611.977 21.7507C610.883 21.6936 609.02 21.8281 608.619 21.8281" fill="#C6E8C8"/>
<path d="M607.928 22.5318C607.824 22.1155 607.964 21.9368 608.028 21.8815C608.057 21.8779 608.087 21.8723 608.116 21.8687C606.822 22.04 606.051 22.8283 604.924 24.068C604.418 24.6003 602.884 26.7739 602.891 26.8016C601.539 28.7191 600.937 28.988 600.134 28.918C599.541 28.8664 597.724 27.6489 596.929 27.1092L596.067 28.7928C596.686 29.4743 598.038 30.8171 598.667 31.4287C600.221 32.9391 601.419 33.0202 602.525 32.1249C603.133 31.6331 605.022 29.9459 605.81 28.9328C606.055 28.9438 606.262 28.463 606.376 28.3286C606.673 27.9823 607.415 25.5858 607.475 25.0424C607.507 24.744 607.901 24.0625 608.209 23.3994C608.084 23.0623 607.982 22.7565 607.926 22.5355" fill="#61BD67"/>
<path fill-rule="evenodd" clip-rule="evenodd" d="M611.467 18.2434C611.329 18.9452 611.55 21.6824 611.55 21.6824C611.55 21.6824 611.476 21.9218 610.93 22.4026C610.452 22.8226 608.931 23.0713 608.425 22.1705V22.0434L608.617 19.1773C608.617 19.1773 611.605 17.5416 611.469 18.2434" fill="#FBBCA2"/>
<path d="M611.38 19.0024C611.38 19.0024 610.416 20.7266 608.84 20.8131C607.501 20.8868 606.48 20.4429 606.48 18.2122L606.473 17.5951L606.623 14.1359L612.089 14.0327C612.2 14.5172 612.169 15.8821 612.131 16.3334C611.844 17.8365 611.538 17.9249 611.38 19.0006" fill="#FBBCA2"/>
<path d="M610.334 13.0048C612.174 13.1061 612.495 14.4581 612.466 15.5099C612.428 16.9098 611.536 18.7334 611.427 19.0981C611.427 19.0981 611.219 18.4719 611.384 18.1974C611.677 17.7074 611.739 17.2359 611.585 16.908C611.433 16.582 611.15 16.9154 611.001 17.1309C610.887 17.2967 610.622 17.1585 610.651 16.313C610.686 15.2815 610.555 14.611 610.27 14.5889C610.154 14.5797 609.973 14.495 609.986 15.1507C610 15.9796 606.405 16.0459 606.429 15.0678C606.46 13.8558 606.804 12.8095 610.336 13.0048" fill="#AB3D2B"/>
<g style="mix-blend-mode:multiply" opacity="0.2">
<g style="mix-blend-mode:multiply" opacity="0.2">
<g style="mix-blend-mode:multiply" opacity="0.2">
<path fill-rule="evenodd" clip-rule="evenodd" d="M608.781 20.8093C609.065 20.7946 609.33 20.7228 609.575 20.6196C609.356 20.837 608.886 21.2606 608.473 21.3656L608.498 20.8149C608.591 20.8149 608.685 20.8149 608.783 20.8075" fill="#333333"/>
</g>
</g>
</g>
<path d="M607.434 17.6521C607.829 17.4859 608.017 17.0258 607.853 16.6244C607.69 16.2231 607.237 16.0325 606.842 16.1988C606.447 16.365 606.259 16.8251 606.423 17.2264C606.586 17.6278 607.039 17.8183 607.434 17.6521Z" stroke="#326D35" stroke-width="0.277847" stroke-miterlimit="10"/>
<path d="M609.461 17.6526C609.856 17.4863 610.044 17.0262 609.88 16.6249C609.716 16.2236 609.264 16.033 608.869 16.1992C608.474 16.3655 608.286 16.8256 608.45 17.2269C608.613 17.6282 609.066 17.8188 609.461 17.6526Z" stroke="#326D35" stroke-width="0.277847" stroke-miterlimit="10"/>
<path d="M608.433 16.6778C608.344 16.6501 608.247 16.6335 608.146 16.6335C608.045 16.6335 607.946 16.6501 607.859 16.6778" stroke="#326D35" stroke-width="0.277847" stroke-miterlimit="10"/>
<path d="M609.966 16.7993L610.771 17.0425" stroke="#326D35" stroke-width="0.253802" stroke-miterlimit="10" stroke-linecap="round"/>
<path fill-rule="evenodd" clip-rule="evenodd" d="M597.246 35.3556L597.034 38.1886H595.321L595.072 35.3298L597.246 35.3556Z" fill="#69BEAD"/>
<path d="M597.364 34.9504H594.953V35.4367H597.364V34.9504Z" fill="#69BEAD"/>
<path fill-rule="evenodd" clip-rule="evenodd" d="M597.204 35.9158L597.076 37.627H595.272L595.123 35.9158H597.204Z" fill="#3A9880"/>
<path fill-rule="evenodd" clip-rule="evenodd" d="M595.082 35.4348L595.094 35.5914H597.228L597.241 35.4348H595.082Z" fill="#E9EBEC"/>
<path d="M562.258 63.6636C562.258 63.6636 562.207 63.8994 562.336 64.0873H567.956C568.083 63.8994 568.034 63.6636 568.034 63.6636C568.014 63.5881 567.82 63.531 567.568 63.4904C567.932 62.3852 568.752 59.7954 568.752 58.8762C568.752 57.6937 567.042 54.4001 567.042 54.4001H563.861C563.861 54.4001 562.151 57.6955 562.151 58.8762C562.151 59.788 562.707 62.3355 562.965 63.4573C562.604 63.4978 562.283 63.5641 562.258 63.6636Z" fill="#5A5C5D"/>
<path d="M562.395 57.7012C562.395 57.7012 561.995 59.0882 561.978 59.7661C561.953 60.886 562.096 62.879 562.096 62.879C562.096 62.879 561.677 63.4685 561.735 63.7503C561.795 64.0321 562.006 64.2477 563.267 64.0874C564.482 63.9345 564.034 62.8201 564.034 62.8201L562.394 57.7012H562.395Z" fill="#5A5C5D"/>
<path d="M568.175 57.725C568.175 57.725 568.703 58.296 568.788 58.9683C568.935 60.138 568.634 62.9563 568.634 62.9563C568.634 62.9563 569.096 63.4665 569.038 63.7484C568.979 64.0302 568.893 64.2052 567.506 64.0854C566.286 63.9804 566.74 62.8181 566.74 62.8181L568.175 57.7231V57.725Z" fill="#5A5C5D"/>
<g opacity="0.7">
<g opacity="0.7">
<path opacity="0.7" d="M564.459 64.091H565.721C566.105 62.5861 566.841 58.9757 566.819 58.4084C566.792 57.6937 566.479 56.2219 566.479 56.2219L564.105 56.2901C564.105 56.2901 563.627 57.2608 563.739 58.576C563.834 59.6812 564.309 63.0466 564.457 64.0928" fill="#979798"/>
</g>
</g>
<path d="M567.508 55.2751C566.957 55.8167 564.286 55.7503 563.48 55.1609L563.197 55.7614C564.062 57.4929 566.692 57.5021 567.72 55.813L567.506 55.2733L567.508 55.2751Z" fill="#58A0D4"/>
<path d="M562.883 51.429C563.119 50.8949 565.561 50.9501 565.561 50.9501C565.561 50.9501 567.978 50.8949 568.213 51.429C568.449 51.9632 568.899 53.2305 568.899 53.2305L568.302 54.1036C568.302 54.1036 567.455 55.4262 567.231 55.7651C567.006 56.1022 566.272 56.6088 565.536 56.6382C564.799 56.6106 564.092 56.104 563.868 55.7651C563.643 55.428 562.796 54.1036 562.796 54.1036L562.2 53.2305C562.2 53.2305 562.649 51.9632 562.885 51.429" fill="#5A5C5D"/>
<path d="M563.759 50.9538C563.759 50.9538 561.224 51.4069 561.159 52.0645C561.094 52.7203 561.587 54.0944 562.281 53.9692C562.976 53.8439 564.404 50.8157 563.759 50.9538Z" fill="#979798"/>
<path d="M567.06 50.9538C567.06 50.9538 569.595 51.4069 569.66 52.0645C569.725 52.7203 569.232 54.0944 568.538 53.9692C567.844 53.8439 566.415 50.8157 567.06 50.9538Z" fill="#979798"/>
<path d="M565.592 55.6418C565.592 55.6418 566.277 55.6603 566.317 55.815C566.364 56.1097 565.697 56.5131 565.592 56.5131C565.487 56.5131 564.82 56.1097 564.867 55.815C564.907 55.6603 565.592 55.6418 565.592 55.6418Z" fill="#979798"/>
<path d="M581.397 18.9065C581.328 18.3134 579.615 14.8375 584.904 14.5317L585.384 14.972L585.904 18.8383V18.9065C586.031 20.3267 585.397 20.8646 583.74 20.9419L582.695 21.0119L581.812 20.9069L581.702 19.9509C581.548 19.6378 581.443 19.2878 581.399 18.9083" fill="#FBBCA2"/>
<path d="M585.389 15.0144L584.985 15.031L585.473 18.5492L586.285 18.5842C586.285 18.5842 585.806 16.9411 585.469 15.4602L585.389 15.0144Z" fill="#FBBCA2"/>
<path d="M575.93 39.3732C576.261 39.0232 576.325 38.7764 576.367 38.5535C576.416 38.2772 576.026 38.9164 575.69 39.0085C575.498 39.0472 575.411 39.0159 575.339 38.9053C575.339 38.9053 575.31 38.8593 575.324 38.8261C575.393 38.6861 576.749 37.6288 577.204 37.4096L579.013 33.7625C579.013 33.7625 580.573 34.1898 580.569 34.129C580.573 34.1714 579.148 36.3615 578.357 37.5515C578.196 37.7946 577.886 38.1667 577.773 38.2717C577.618 38.4172 577.413 38.699 577.349 38.7967C577.132 39.1466 576.921 39.4119 576.588 39.7177C576.203 40.0695 575.241 40.5816 574.815 40.1469C574.809 40.1413 574.802 40.1358 574.798 40.1303C574.798 40.1303 574.797 40.1284 574.795 40.1266C574.588 39.9092 575.301 40.0382 575.93 39.3732Z" fill="#FBBCA2"/>
<path d="M577.695 35.0886C577.695 35.0886 576.962 36.203 577.078 36.3043C577.194 36.4057 579.308 37.6177 579.392 37.6472C579.475 37.6766 579.847 37.5127 580.073 37.1553C580.302 36.798 580.45 36.5659 579.753 36.1883C579.055 35.8107 577.967 35.376 577.693 35.0905" fill="#9F9DC8"/>
<path d="M577.695 35.0886C577.695 35.0886 576.962 36.203 577.078 36.3043C577.194 36.4057 579.308 37.6177 579.392 37.6472C579.475 37.6766 579.847 37.5127 580.073 37.1553C580.302 36.798 580.45 36.5659 579.753 36.1883C579.055 35.8107 577.967 35.376 577.693 35.0905" fill="#5795AD"/>
<path d="M584.437 62.7686L582.922 62.658L582.831 60.6484L584.49 60.5913L584.437 62.7686Z" fill="#BEE4C0"/>
<path d="M574.12 59.6924L573.03 58.6167L574.24 57.0215L575.543 58.0641L574.12 59.6924Z" fill="#BEE4C0"/>
<path d="M579.282 36.1055C579.465 40.7086 579.43 41.7954 579.059 46.8223C578.865 49.4342 575.95 52.4846 573.281 57.493C573.052 57.9204 576.082 59.6666 576.356 59.2669C579.012 55.3894 582.581 50.9005 583.152 48.7987C583.879 46.1241 583.355 38.303 583.355 38.303L583.08 36.1828L579.282 36.1091V36.1055Z" fill="#006316"/>
<path d="M585.299 36.0888C585.299 36.0888 587.509 47.3655 587.105 49.598C586.927 50.5798 585.634 61.8953 585.634 61.8953C585.634 61.8953 584.215 61.8529 583.303 61.7608C582.741 61.7037 582.085 61.5877 582.085 61.5877C581.949 60.9687 583.435 51.3608 583.017 49.7343C582.598 48.1079 578.702 36.8164 578.702 36.8164L585.297 36.0869L585.299 36.0888Z" fill="#178029"/>
<path d="M586.082 36.9564C586.16 37.5108 586.037 37.73 584.96 37.9805C584.84 38.0081 582.01 38.8113 581.573 38.9291C579.795 39.4173 578.118 40.1578 577.273 39.3657C576.655 38.7873 578.955 29.6546 579.717 25.6409C580.202 23.0787 580.487 22.4506 581.37 22.1135C581.765 21.9624 583.478 22.4616 584.03 22.445C584.03 22.445 584.311 23.0068 584.664 25.547C585.252 29.7707 585.879 35.5233 586.082 36.9545" fill="#7EC6EB"/>
<g opacity="0.16">
<g opacity="0.16">
<path opacity="0.16" d="M583.404 53.8495C583.56 57.3272 583.132 60.3905 582.804 61.7001C582.414 61.6467 582.086 61.5878 582.086 61.5878C581.971 61.0739 582.981 54.345 583.085 51.1565C583.23 51.7588 583.349 52.619 583.405 53.8495" fill="#201D1D"/>
</g>
</g>
<path d="M580.904 18.4001C580.701 21.0103 580.924 22.1486 580.846 22.4139C580.761 22.7049 581.466 23.0917 582.093 23.1525C582.73 23.2151 584.107 23.0623 584.118 22.6975L583.97 22.1044L583.694 19.2806C583.694 19.2806 580.964 17.6265 580.904 18.3983" fill="#FBBCA2"/>
<g style="mix-blend-mode:multiply" opacity="0.2">
<g style="mix-blend-mode:multiply" opacity="0.2">
<g style="mix-blend-mode:multiply" opacity="0.2">
<path fill-rule="evenodd" clip-rule="evenodd" d="M583.88 21.0286L582.694 20.7983C582.694 20.7983 583.383 21.5075 583.934 21.6125L583.878 21.0286H583.88Z" fill="#2D2D2D"/>
</g>
</g>
</g>
<path fill-rule="evenodd" clip-rule="evenodd" d="M582.641 62.5382C582.523 62.8551 582.566 62.9785 582.566 63.135C582.566 63.3266 582.655 63.7226 582.717 64.0892H588.462C588.868 63.7134 588.729 63.4574 588.198 63.2548C587.82 63.1461 587.581 63.0079 587.364 62.9748L584.65 62.0685C584.597 62.0446 584.47 62.0133 584.446 62.0667L584.388 62.2085L584.314 62.3909C584.008 62.5364 583.759 62.6082 583.569 62.6082C583.413 62.6082 583.199 62.5438 582.925 62.4167C582.82 62.3688 582.697 62.4148 582.648 62.5217C582.646 62.5253 582.644 62.5309 582.643 62.5364" fill="#D5D5D8"/>
<path fill-rule="evenodd" clip-rule="evenodd" d="M583.602 63.4278C583.218 63.4278 582.9 63.0558 582.906 62.5952C582.906 62.5289 582.909 62.47 582.915 62.4147C582.919 62.4147 582.92 62.4147 582.924 62.4184C583.198 62.5455 583.412 62.61 583.568 62.61C583.752 62.61 583.994 62.5418 584.285 62.4055C584.291 62.4645 584.296 62.5271 584.296 62.5971C584.304 63.0558 583.985 63.4297 583.602 63.4297" fill="#6EBAE8"/>
<path fill-rule="evenodd" clip-rule="evenodd" d="M572.97 58.2628C572.684 58.4378 572.644 58.5612 572.548 58.6846C572.43 58.8357 572.258 59.2004 572.082 59.5283C572.254 59.6664 573.67 60.8085 576.584 63.1552C577.133 63.1165 577.18 62.8292 576.886 62.3337C576.656 62.0113 576.555 61.7516 576.404 61.5877L574.83 59.1654C574.803 59.1138 574.724 59.0088 574.673 59.0346C574.673 59.0346 574.542 59.1083 574.54 59.1101L574.372 59.2059C574.044 59.1267 573.804 59.0254 573.654 58.9057C573.532 58.8081 573.404 58.622 573.266 58.3494C573.213 58.2444 573.088 58.2039 572.985 58.2555C572.981 58.2573 572.976 58.261 572.972 58.2628" fill="#D5D5D8"/>
<path fill-rule="evenodd" clip-rule="evenodd" d="M573.181 59.5671C572.88 59.324 572.86 58.8321 573.144 58.4766C573.184 58.4251 573.224 58.3809 573.262 58.3403C573.262 58.3422 573.266 58.3459 573.266 58.3477C573.402 58.6203 573.532 58.8064 573.654 58.904C573.799 59.02 574.029 59.1177 574.343 59.1969C574.312 59.2466 574.277 59.2982 574.234 59.3534C573.958 59.7182 573.482 59.8084 573.181 59.5653" fill="#6EBAE8"/>
<path d="M581.573 38.9311C581.468 38.9606 581.364 38.9901 581.259 39.0196C581.881 38.2293 583.074 36.59 583.573 35.0243C584.263 32.8599 583.745 27.8865 583.745 27.8865L585.213 29.7911C585.228 29.9164 585.244 30.0398 585.259 30.1632C585.262 30.1982 585.268 30.235 585.271 30.27C585.286 30.3898 585.3 30.5095 585.315 30.6274V30.6403C585.333 30.771 585.348 30.9 585.364 31.0289L585.375 31.1155C585.387 31.226 585.402 31.3365 585.415 31.4471C585.415 31.4636 585.418 31.4784 585.42 31.495C585.436 31.6221 585.451 31.7492 585.465 31.8744C585.467 31.8928 585.469 31.9113 585.473 31.9315C585.485 32.042 585.5 32.1526 585.512 32.2612C585.514 32.2833 585.518 32.3054 585.52 32.3275C585.534 32.4473 585.549 32.567 585.561 32.6849C585.561 32.6996 585.565 32.7125 585.567 32.7273C585.581 32.847 585.596 32.9667 585.609 33.0846C585.632 33.2817 585.654 33.4714 585.677 33.6593C585.71 33.9393 585.743 34.2064 585.774 34.4624C585.777 34.5011 585.783 34.5398 585.788 34.5803C585.797 34.6651 585.808 34.7479 585.817 34.829L585.821 34.8566C585.832 34.9524 585.842 35.0464 585.853 35.1366C585.855 35.155 585.859 35.1734 585.861 35.1919C585.87 35.2748 585.881 35.354 585.89 35.4313C585.89 35.4424 585.891 35.4534 585.893 35.4645C585.904 35.5492 585.913 35.6321 585.922 35.7132C585.924 35.7316 585.926 35.7482 585.929 35.7666C585.937 35.8274 585.944 35.8863 585.951 35.9434C585.955 35.9655 585.957 35.9876 585.96 36.0097C585.969 36.0797 585.977 36.1479 585.986 36.2142C585.986 36.2271 585.989 36.2381 585.991 36.251C585.998 36.3081 586.006 36.3615 586.011 36.415C586.013 36.4297 586.015 36.4426 586.016 36.4573C586.024 36.5181 586.031 36.5771 586.038 36.6323V36.6507C586.047 36.6986 586.053 36.7447 586.058 36.787C586.058 36.7999 586.062 36.811 586.064 36.8239C586.071 36.8699 586.076 36.9141 586.082 36.9547C586.091 37.0247 586.098 37.0891 586.1 37.1481C586.1 37.1776 586.1 37.207 586.1 37.2347C586.094 37.3452 586.067 37.4391 586.006 37.522C585.975 37.5625 585.937 37.6012 585.888 37.6381C585.839 37.6749 585.781 37.7099 585.712 37.743C585.538 37.8259 585.295 37.9015 584.96 37.9807C584.84 38.0083 582.01 38.8114 581.573 38.9293" fill="#5795AD"/>
<path d="M590.669 33.7349C590.669 33.7349 591.805 34.4164 591.744 34.5582C591.682 34.7001 590.295 36.7263 590.234 36.7889C590.172 36.8515 589.766 36.8681 589.409 36.6471C589.05 36.426 588.818 36.2824 589.284 35.634C589.751 34.9856 590.545 34.1143 590.669 33.7349Z" fill="#9F9DC8"/>
<path d="M594.32 36.2233C595.201 36.4315 597.429 35.7315 597.659 36.9841C597.79 37.6914 597.001 37.5938 596.091 37.5698C595.206 37.5477 594.744 37.5551 593.379 37.113L591.95 36.7999L589.577 35.702L590.65 34.6116L592.365 35.5713L594.318 36.2233H594.32Z" fill="#FBBCA2"/>
<path d="M595.083 36.308C595.083 36.308 596.202 36.1294 596.309 36.0354C596.418 35.9415 595.693 35.726 594.708 35.9875C593.724 36.2491 593.586 36.168 593.586 36.168L595.082 36.3099L595.083 36.308Z" fill="#FBBCA2"/>
<path d="M589.333 33.0717C587.783 31.9868 584.916 26.4865 583.31 24.1932C583.127 23.9317 582.541 23.6609 582.15 23.5522C580.884 23.2004 579.278 24.4143 580.355 26.8549C581.341 29.0893 585.381 33.6206 586.771 34.4937C588.55 35.6082 589.871 36.6839 590 36.6434C590.129 36.6028 591.545 34.7424 591.497 34.5324C591.45 34.3224 590.883 34.1548 589.333 33.0699" fill="#7EC6EB"/>
<path d="M590.669 33.7349C590.669 33.7349 591.805 34.4164 591.744 34.5582C591.682 34.7001 590.295 36.7263 590.234 36.7889C590.172 36.8515 589.766 36.8681 589.409 36.6471C589.05 36.426 588.818 36.2824 589.284 35.634C589.751 34.9856 590.545 34.1143 590.669 33.7349Z" fill="#5795AD"/>
<path d="M573.078 24.8065C573.185 24.3202 573.406 23.8984 573.698 23.5318C574.414 22.6311 575.743 22.8466 576.066 22.0453C576.488 20.9954 575.007 20.0062 575.613 18.8255C576.535 17.0258 578.412 17.5453 579.153 17.0037C580.007 16.3775 579.416 15.4564 580.315 14.3752C581.028 13.5187 582.273 13.0434 583.396 13.2737C583.706 13.3363 584.295 13.4763 584.625 13.7544C585.185 14.0952 585.345 14.5318 585.345 14.5318C585.461 15.0328 585.374 15.4104 585.147 15.8101C584.837 16.3572 584.373 16.5893 583.918 16.5267C582.912 16.3903 582.681 16.5469 582.531 16.8416C582.437 17.0277 582.612 17.175 582.705 17.5582C582.886 18.3079 582.565 19.2068 582.045 19.6691C581.532 20.1259 581.421 20.0946 581.225 20.4317C580.794 21.1704 581.983 22.3621 581.612 23.1045C581.334 23.6571 580.194 23.7971 580.014 24.0992C579.835 24.4012 580.292 25.1767 580.344 25.6409C580.587 27.7703 579.15 29.7154 577.134 29.9844C575.119 30.2514 573.152 28.8313 572.975 26.6945C572.911 25.9246 572.953 25.3075 573.078 24.8102" fill="#163F59"/>
<path d="M575.91 38.8888C575.543 43.2009 575.141 56.4284 569.907 57.7123C568.683 57.8504 568.007 57.2536 567.657 56.8078C567.439 56.5315 567.222 56.246 567.213 56.2202L566.857 56.4265C566.863 56.445 567.47 58.1101 569.535 58.1101C569.686 58.1101 569.845 58.1009 570.012 58.0825C575.993 56.6918 575.794 42.8436 576.321 38.4983" fill="#58A0D4"/>
<path d="M137.266 64.1225C137.266 64.4551 122.09 64.7257 103.37 64.7257C84.6507 64.7257 69.4741 64.4551 69.4741 64.1225C69.4741 63.7899 84.6507 63.5193 103.37 63.5193C122.09 63.5193 137.266 63.7899 137.266 64.1225Z" fill="#ECECEC"/>
<path d="M78.6371 30.619L67.2185 25.5911C66.7821 25.3987 66.2782 25.6041 66.0889 26.0443L78.6371 31.5711V30.619Z" fill="#B3B2B4"/>
<path d="M76.2171 20.6416V62.3683C76.2171 63.2781 76.6888 64.015 77.2729 64.015H104.917V20.6416H76.2139H76.2171Z" fill="#B4B3B6"/>
<g opacity="0.9">
<path opacity="0.9" d="M104.92 30.5376H76.2168V30.8604H104.92V30.5376Z" fill="white"/>
</g>
<g opacity="0.9">
<path opacity="0.9" d="M104.92 22.3306H76.2168V22.6371H104.92V22.3306Z" fill="white"/>
</g>
<g opacity="0.9">
<path opacity="0.9" d="M104.92 42.625H76.2168V42.9315H104.92V42.625Z" fill="white"/>
</g>
<path d="M94.6894 47.105H86.4448V47.4995H94.6894V47.105Z" fill="white"/>
<path d="M94.6894 50.9788H86.4448V51.3733H94.6894V50.9788Z" fill="white"/>
<path d="M94.6894 54.8557H86.4448V55.2503H94.6894V54.8557Z" fill="white"/>
<path d="M94.6894 58.7327H86.4448V59.1272H94.6894V58.7327Z" fill="white"/>
<path opacity="0.9" d="M76.2168 24.8152H90.2733C90.9409 24.8152 91.4832 25.3662 91.4832 26.0445V28.6367C91.4832 29.1062 91.1077 29.4877 90.6456 29.4877H76.22V24.8152H76.2168Z" fill="white"/>
<path d="M102.76 28.0628C103.126 28.0628 103.424 27.7606 103.424 27.3878C103.424 27.0151 103.126 26.7129 102.76 26.7129C102.393 26.7129 102.095 27.0151 102.095 27.3878C102.095 27.7606 102.393 28.0628 102.76 28.0628Z" fill="#E6E8EA"/>
<path d="M103.528 25.7966H101.933V26.214H103.528V25.7966Z" fill="#E6E8EA"/>
<path d="M103.528 24.8967H101.933V25.3141H103.528V24.8967Z" fill="#E6E8EA"/>
<path d="M78.0623 18.2383H91.2395C91.6696 18.2383 92.0162 18.5904 92.0162 19.0274V21.6946H76.2202V20.1099C76.2202 19.0763 77.045 18.2383 78.0623 18.2383Z" fill="#B4B3B6"/>
<path d="M88.618 18.2384H97.0294C97.299 18.2384 97.5172 18.4601 97.5172 18.734V19.197C97.5172 19.2166 97.5012 19.2296 97.4851 19.2296H88.6147V18.2351L88.618 18.2384Z" fill="#B4B3B6"/>
<path d="M113.692 64.0019L117.35 56.3556L124.247 51.7939L126.067 55.635C126.067 55.635 121.163 60.9466 116.644 64.0051H113.692V64.0019Z" fill="#5696C8"/>
<path d="M119.475 27.2933L119.013 31.4278C119.013 31.4278 120.004 31.7702 120.056 31.7604C120.104 31.7506 120.361 28.8421 120.094 26.4292L119.475 27.2933Z" fill="#EBBEB5"/>
<path d="M116.481 34.2482C117.915 34.2808 119.093 33.8406 119.414 31.4441L119.523 30.7071L120.094 26.4292L114.366 25.6792C114.141 26.24 113.907 27.0519 113.737 27.5867L112.934 27.4758C112.934 27.4758 112.726 27.8019 112.703 28.3497C112.665 29.3018 112.934 30.4039 112.848 31.4408C112.848 31.4408 112.283 33.6613 112.132 34.0624C111.981 34.4634 111.647 34.8319 111.647 34.8319C111.237 35.2362 111.962 35.2916 112.203 35.5264C112.848 36.1622 114.115 37.2252 114.837 37.1893C114.889 37.1893 115.072 37.1893 115.113 36.935C115.12 36.8861 115.123 36.8372 115.12 36.7785C115.2 34.6558 116.057 34.2971 116.487 34.2482H116.481Z" fill="#EBBEB5"/>
<path d="M121.898 24.0816C121.676 22.8882 120.351 22.3502 118.114 22.4904C117.382 22.536 116.686 22.7056 116.079 22.9501C115.717 22.7056 115.296 22.536 114.831 22.4741C113.246 22.2556 112.414 23.3153 112.209 24.8576C112.203 24.9163 112.199 24.9717 112.196 25.0304C109.873 24.887 112.44 29.7291 112.706 30.3812C112.815 30.6257 112.835 30.6844 112.909 30.6453C113.047 30.6094 113.011 30.4725 112.899 29.9084C112.793 29.3834 112.706 29.0248 112.976 28.6563C113.242 28.2911 113.582 28.4509 113.772 28.7378C113.868 28.8845 113.952 29.015 114.09 28.9172C114.298 28.7704 114.08 27.7498 114.266 26.7684C114.497 25.5489 119.17 26.7456 120.431 26.8042H120.441C121.939 26.2923 122.049 24.8902 121.898 24.0783V24.0816Z" fill="#CAB067"/>
<path opacity="0.3" d="M116.237 34.245C115.306 34.1505 114.497 33.7494 113.923 33.1755C114.247 33.7396 114.934 34.2353 115.826 34.5613C116.038 34.3624 116.259 34.2842 116.426 34.2581C116.362 34.2548 116.298 34.2516 116.234 34.245H116.237Z" fill="#272223"/>
<path d="M114.131 55.7002C114.131 55.7002 112.145 57.8099 104.478 56.5219C104.478 56.5219 105.553 42.0902 111.339 34.7961C111.449 34.6689 111.712 34.695 111.737 34.7048C111.763 34.7146 111.933 35.1515 112.845 35.5754C115.11 36.6351 115.059 35.908 115.187 36.0058C115.223 36.0319 115.268 36.1199 115.329 36.2797C116.073 38.2948 114.131 55.697 114.131 55.697V55.7002Z" fill="#86CAEB"/>
<path d="M142.803 61.7064L141.006 63.353L137.976 60.3499L140.21 59.0815L142.803 61.7064Z" fill="#91B8B8"/>
<path d="M139.79 62.1597C139.712 61.8467 140.306 62.0163 140.746 61.9445C142.476 61.6543 142.405 61.1913 142.633 61.087C142.858 60.9826 143.888 61.9315 146.843 61.3185C147.97 61.0837 148.349 61.713 148.445 62.1239L140.309 63.8259C140.309 63.8259 139.918 62.6814 139.793 62.1597H139.79Z" fill="#9E9E9F"/>
<path d="M140.207 63.6401C140.213 63.6042 141.356 63.314 143.272 63.0434C145.188 62.7727 148.525 62.0293 148.525 62.0293L148.602 62.3293C148.602 62.3293 146.035 62.8901 144.629 63.1444C143.227 63.3988 140.374 64.0998 140.345 64.09C140.316 64.0802 140.2 63.6759 140.207 63.6401Z" fill="#BCBBBD"/>
<path d="M142.414 60.7802L140.424 62.8834C140.424 62.8834 140.055 62.1334 137.122 60.8292C134.189 59.5249 123.399 51.7482 122.212 51.1287C123.332 49.8864 123.582 50.1863 125.19 49.8244C126.631 49.4983 134.738 53.4372 142.414 60.7802Z" fill="#5696C8"/>
<path opacity="0.2" d="M113.692 64.0019L117.35 56.3556L124.247 51.7939L126.067 55.635C126.067 55.635 121.163 60.9466 116.644 64.0051H113.692V64.0019Z" fill="#272223"/>
<path opacity="0.2" d="M142.414 60.7802L140.424 62.8834C140.424 62.8834 140.055 62.1334 137.122 60.8292C134.189 59.5249 123.399 51.7482 122.212 51.1287C123.332 49.8864 123.582 50.1863 125.19 49.8244C126.631 49.4983 134.738 53.4372 142.414 60.7802Z" fill="#272223"/>
<path d="M140.707 61.752L139.08 63.3725L135.986 60.4412L138.188 59.1206L140.707 61.752Z" fill="#91B8B8"/>
<path d="M137.745 62.3519C137.745 62.0291 138.249 62.1693 138.695 62.2052C140.444 62.3487 140.505 61.7389 140.749 61.69C140.993 61.6444 142.058 62.8345 145.072 62.9682C146.221 63.0171 146.522 63.7181 146.519 64.142L137.845 63.7801C137.845 63.7801 137.745 62.8899 137.745 62.3519Z" fill="#9E9E9F"/>
<path d="M137.79 63.5748C137.803 63.5422 138.984 63.5422 140.906 63.7476C142.828 63.953 146.583 64.0834 146.583 64.0834V64.3932C146.583 64.3932 143.621 64.2791 142.199 64.1812C140.778 64.0834 137.841 64.0639 137.819 64.0443C137.796 64.0247 137.777 63.6074 137.793 63.5748H137.79Z" fill="#BCBBBD"/>
<path d="M105.591 64.0018C105.325 63.8975 103.38 62.9095 104.497 56.4143C104.497 56.4143 110.582 56.486 111.785 56.4143C113.47 56.3099 117.905 52.1493 123.152 49.2538C123.685 48.9604 124.298 48.768 124.872 48.8169C125.479 48.8691 125.97 48.9767 126.499 49.3321C129.041 51.0505 140.12 60.2097 140.132 60.5944C140.142 60.9792 137.985 62.5476 137.668 62.5541C137.35 62.5606 135.733 61.6705 133.085 60.1575C130.293 58.563 126.416 56.5675 125.01 56.411C123.983 56.2969 120.36 59.9325 114.073 63.9986H105.591V64.0018Z" fill="#5696C8"/>
<path opacity="0.12" d="M109.494 45.3705C110.152 42.7587 110.486 43.3913 112.591 45.8596C113.178 46.5476 114.045 47.1052 114.956 47.3367C114.651 50.8288 114.308 54.0699 114.179 55.2405C113.143 55.9285 112.321 56.3785 111.782 56.4111C111.708 56.4144 111.618 56.4209 111.513 56.4241C111.612 56.1437 111.718 55.8079 111.763 55.3709C111.92 53.858 111.176 52.9091 110.197 50.9919C108.958 48.5757 109.118 46.8606 109.494 45.3705Z" fill="#272223"/>
<path opacity="0.2" d="M114.073 64.0019H105.591C105.325 63.8975 103.38 62.9096 104.497 56.4143C104.497 56.4143 104.548 56.4143 104.641 56.4143C104.892 58.2435 104.731 60.438 105.736 61.8303C106.782 63.2813 110.116 63.3041 113.024 63.2487C113.958 63.2291 114.779 63.1508 115.492 63.0595C115.033 63.3693 114.561 63.6823 114.073 64.0019Z" fill="#272223"/>
<path d="M131.807 39.4619L130.209 47.9429L120.652 48.5885L120.703 49.3613L130.848 48.6733L132.558 39.6054C132.597 39.3967 132.462 39.1913 132.257 39.1522C132.051 39.1131 131.849 39.25 131.81 39.4587L131.807 39.4619Z" fill="#BCBBBD"/>
<path d="M122.135 47.0268C122.135 47.0268 123.547 46.5279 123.676 46.479C124.25 46.2606 125.916 45.7291 126.741 46.5866C127.745 47.6333 127.867 47.93 127.726 48.0767C127.684 48.1191 127.533 48.2007 127.36 48.1289C126.943 47.9528 126.314 47.392 125.974 47.4148C125.457 47.4474 124.542 47.8876 124.067 47.6887C123.519 47.4605 121.574 48.6082 121.574 48.6082L122.139 47.0301L122.135 47.0268Z" fill="#EBBEB5"/>
<path d="M115.245 37.6231C115.245 37.6231 114.949 43.6619 114.834 45.5433C114.805 46.0063 114.956 46.6682 115.357 46.8899C117.587 48.1159 122.642 46.4693 122.642 46.4693L123.958 48.7713C123.958 48.7713 121.355 49.6061 120.165 49.8897C116.811 50.6919 114.044 51.1842 111.487 50.7767C108.188 50.2484 111.179 37.1895 111.179 37.1895" fill="#86CAEB"/>
<path d="M103.056 59.4075L103.402 63.7474C103.415 63.9072 103.547 64.0311 103.704 64.0279H106.451C106.608 64.0213 106.74 63.9007 106.753 63.7409L107.093 59.4042C107.096 59.3455 107.051 59.2966 106.994 59.2966H103.155C103.098 59.2966 103.053 59.3455 103.056 59.4042V59.4075Z" fill="#E6E8EA"/>
<path d="M104.744 60.6856C104.641 60.6856 104.548 60.7182 104.468 60.7704C104.404 60.8161 104.349 60.8747 104.307 60.9432C104.256 61.028 104.227 61.1323 104.227 61.2399V62.9094L104.615 62.3518H105.26C105.546 62.3518 105.777 62.104 105.777 61.7943V60.6824H104.744V60.6856ZM105.26 61.7975H104.744V61.2399H105.26V61.7975Z" fill="#98CD49"/>
<path d="M104.227 62.355V62.9098L104.621 62.355H104.227Z" fill="#43BD54"/>
<path d="M104.616 62.355H104.746L104.707 62.2246L104.616 62.355Z" fill="#C0DFA6"/>
<path d="M105.781 61.2404V60.6855L105.466 61.1294L105.781 61.2404Z" fill="#C0DFA6"/>
<path d="M104.746 61.4258L104.509 61.5953L104.707 62.2246L105.006 61.7975H104.746V61.4258Z" fill="#11AD56"/>
<path d="M105.469 61.1294L105.784 60.6855L105.261 61.0576L105.469 61.1294Z" fill="#42C3A6"/>
<path d="M105.001 61.2401H105.264V61.4262L105.473 61.1292L105.264 61.0574L105.001 61.2401Z" fill="#00BCA6"/>
<path d="M105.777 60.6856H104.744C104.641 60.6856 104.548 60.7182 104.468 60.7704L105.26 61.0541L105.777 60.6824V60.6856Z" fill="#C0DFA6"/>
<path d="M104.513 61.5955L104.227 61.7973V62.3539H104.62L104.71 62.2237L104.513 61.5955Z" fill="#70C451"/>
<path d="M104.309 60.9434C104.256 61.0281 104.227 61.1325 104.227 61.2401V61.7977L104.514 61.5955L104.309 60.9434Z" fill="#78CFC6"/>
<path d="M104.745 61.4257V61.2398H105.002L105.258 61.0539L104.466 60.7703C104.401 60.8159 104.347 60.8746 104.305 60.9431L104.507 61.5952L104.742 61.4257H104.745Z" fill="#AFD441"/>
<path d="M103.38 62.6453L103.358 62.3551C103.332 62.4953 103.258 62.5605 103.258 62.5605C103.178 62.616 103.021 62.6844 102.841 62.6747C102.668 62.6649 102.52 62.5834 102.402 62.4334C102.296 62.2997 102.109 61.9964 102.065 61.4682C101.994 60.6661 102.228 60.3433 102.376 60.2226C102.45 60.164 102.533 60.1183 102.633 60.0922C102.726 60.0694 103.002 60.027 103.159 60.3107C103.175 60.3433 103.191 60.3694 103.207 60.3922L103.108 59.6455C103.075 59.6651 103.027 59.6814 102.966 59.6912C102.909 59.6912 102.844 59.6912 102.777 59.6912C102.581 59.7075 102.36 59.7661 102.167 59.9259C102 60.0661 101.875 60.265 101.795 60.5194C101.712 60.7933 101.686 61.1258 101.718 61.5073C101.769 62.1073 101.975 62.4758 102.138 62.6779C102.318 62.9029 102.556 63.0333 102.822 63.0464C102.867 63.0464 102.912 63.0464 102.957 63.0431C102.979 63.0431 103.307 63.0301 103.412 63.0236C103.393 62.841 103.38 62.6421 103.38 62.6421V62.6453Z" fill="#E6E8EA"/>
<path opacity="0.09" d="M106.156 59.2998C106.063 60.2226 106.336 61.4518 106.326 63.0952C106.326 63.2028 106.326 63.33 106.255 63.4735C106.114 63.7767 105.78 63.9397 105.386 64.0278H106.451C106.608 64.0278 106.74 63.9039 106.753 63.7441L107.093 59.4074C107.096 59.3487 107.051 59.2998 106.994 59.2998H106.156Z" fill="#5A5B5E"/>
<path d="M191.773 49.6207H148.009V5.15503H191.773V49.6207ZM184.62 12.423H155.162V42.3527H184.62V12.4198V12.423Z" fill="#E9F3F7"/>
<path d="M620.971 392.406H620.126V435.901H620.971V392.406Z" fill="#A9D6AB"/>
<path d="M596.468 392.406H595.624V435.901H596.468V392.406Z" fill="#A9D6AB"/>
<path d="M604.138 419.239C604.138 419.239 603.744 424.752 603.641 425.841C603.538 426.927 603.278 428.042 603.278 428.042L606.709 428.574C606.709 428.574 606.728 424.527 606.869 423.337C607.011 422.147 607.113 419.307 607.113 419.307L604.138 419.242V419.239Z" fill="#EAAB94"/>
<path d="M609.164 431.701L608.458 431.9C608.458 431.9 608.721 432.402 608.878 433.237C608.916 433.452 609.058 433.866 609.058 433.866C609.565 433.873 609.231 432.236 609.199 432.034C609.186 431.955 609.115 431.838 609.167 431.701H609.164Z" fill="#EACBA9"/>
<path d="M621.583 433.921H594.054V436.119H621.583V433.921Z" fill="#44BA54"/>
<path d="M596.279 446.38L595.127 451.597L595.217 452.494L589.53 453.792L589.116 453.384C589.116 453.384 592.357 451.901 593.053 451.336C593.75 450.772 594.199 445.523 594.199 445.523L596.282 446.377L596.279 446.38Z" fill="#EAAB94"/>
<path fill-rule="evenodd" clip-rule="evenodd" d="M595.688 452.543C595.713 452.794 595.758 453.182 595.726 453.671C595.44 453.704 593.239 453.948 588.383 454.486C588.111 453.834 588.085 453.586 588.496 453.371C588.903 453.123 592.639 451.415 592.639 451.415C592.703 451.376 592.79 451.398 592.828 451.464L592.944 451.64L593.326 452.308C593.746 452.452 594.77 452.351 595.017 452.135C595.264 451.92 595.062 451.591 595.258 451.552C595.453 451.513 595.473 451.588 595.534 451.738C595.534 451.744 595.672 452.334 595.694 452.543H595.688Z" fill="#6CC272"/>
<path d="M607.674 429.242L598.971 429.392C598.971 429.392 594.59 429.412 593.701 433.471C593.005 436.657 592.052 449.282 592.052 449.282L597.119 449.798C597.119 449.798 597.312 439.246 599.661 435.816C600.954 433.928 604.324 433.983 607.674 434.003V429.239V429.242Z" fill="#2B9B3D"/>
<path opacity="0.12" d="M607.674 429.242L598.971 429.392C598.971 429.392 594.59 429.412 593.701 433.471C593.005 436.657 592.052 449.282 592.052 449.282L597.119 449.798C597.119 449.798 597.312 439.246 599.661 435.816C600.954 433.928 604.324 433.983 607.674 434.003V429.239V429.242Z" fill="#272223"/>
<path d="M600.624 447.117L601.587 453.374L596.888 455.875L596.304 455.416C596.304 455.416 599.189 453.593 599.408 453.012C599.626 452.432 598.249 447.169 598.249 447.169L600.624 447.12V447.117Z" fill="#EAAB94"/>
<path d="M601.805 435.992C600.319 437.547 601.692 450.73 601.692 450.73L595.261 450.482C595.261 450.482 592.719 430.595 598.361 429.353C599.481 429.105 600.206 429.18 605.9 429.122C606.583 429.115 606.42 427.478 606.42 427.478C608.682 427.077 614.991 426.389 614.991 426.389C615.855 428.897 616.602 431.375 615.912 433.282C615.226 435.19 614.16 435.509 612.113 435.646C609.818 435.799 602.588 435.173 601.805 435.992Z" fill="#2B9B3D"/>
<g style="mix-blend-mode:multiply" opacity="0.1">
<path d="M620.96 428.9C618.864 427.651 613.229 425.029 613.223 427.775C613.219 430.263 611.714 432.565 610.408 433.413C607.327 435.411 604.911 433.047 602.837 434.469C600.568 436.024 602.507 442.989 605.267 446.159C608.9 450.329 614.022 448.376 618.778 444.802C624.593 440.433 624.551 431.042 620.957 428.903L620.96 428.9Z" fill="#3A3A3A"/>
</g>
<path d="M601.474 412.743C601.725 412.029 602.148 411.491 602.729 411.044C603.56 410.409 604.199 409.766 604.738 408.84C605.746 407.106 605.296 404.559 605.958 402.635C605.97 402.596 606.32 403.114 606.339 403.082C606.291 403.936 606.587 404.859 606.927 405.615C607.405 406.688 608.149 407.93 609.247 408.38C609.449 408.971 609.722 409.492 609.985 410.06C610.296 410.735 610.341 410.927 610.852 410.761C610.871 411.745 610.771 412.681 610.608 413.376C609.966 416.121 607.867 417.993 604.947 417.533C602.527 417.152 600.624 415.179 601.474 412.74V412.743Z" fill="#704A40"/>
<path d="M614 412.101C614 412.101 612.44 411.951 612.286 411.765C611.718 411.074 611.593 407.275 611.593 407.275L608.275 408.873C608.275 408.873 608.57 410.51 608.544 411.612C608.532 412.085 607.819 412.212 607.129 412.336L606.998 415.159L609.488 417.178L614.106 414.321L614.007 412.101H614Z" fill="#EAAB94"/>
<path d="M609.635 409.92C608.143 410.451 606.68 410.356 606.224 408.87C606.224 408.87 605.595 406.828 605.832 403.463C605.832 403.421 606.205 402.938 606.205 402.938C607.013 402.312 608.547 401.165 610.02 401.719C612.498 402.648 611.866 405.296 611.891 405.801C611.914 406.242 612.052 406.76 611.734 407.582C611.734 407.582 611.124 409.388 609.635 409.92Z" fill="#EAAB94"/>
<path d="M608.319 414.703C610.28 414.869 611.525 414.703 611.682 411.961C611.682 411.961 615.219 413.552 614.773 413.382C614.773 413.382 614.535 416.434 614.789 420.318C615.245 427.224 615.643 426.986 615.684 427.856C615.7 428.209 611.015 428.329 610.851 428.316C610.331 428.271 606.361 428.398 606.262 428.039C606.162 427.68 605.935 421.795 605.761 420.764C605.479 419.092 605.087 417.445 605.736 416.369C606.384 415.296 606.333 412.629 606.333 412.629L607.584 412.189C607.584 412.189 606.207 414.524 608.316 414.703H608.319Z" fill="#5696C8"/>
<path d="M606.497 412.463C605.868 412.769 605.373 412.844 604.529 414.794C603.99 416.043 603.688 417.725 603.538 420.122C603.528 420.298 605.377 420.781 605.377 420.781C605.377 420.781 606.586 421.289 606.782 421.283C607.559 421.26 607.636 419.431 607.077 416.734C606.381 413.363 607.623 412.42 607.774 412.13C607.8 412.084 606.554 412.43 606.497 412.459V412.463Z" fill="#5696C8"/>
<path opacity="0.2" d="M610.476 409.427C610.235 409.629 609.956 409.805 609.635 409.92C609.234 410.063 608.836 410.158 608.46 410.194C608.48 410.366 608.496 410.546 608.512 410.725C608.846 410.699 609.202 410.611 609.507 410.428C609.956 410.154 610.27 409.799 610.479 409.431L610.476 409.427Z" fill="#78797C"/>
<g style="mix-blend-mode:multiply" opacity="0.1">
<path d="M615.685 427.86C615.643 427.012 615.264 427.214 614.825 420.839C614.266 420.983 613.047 421.478 612.999 423.096C612.938 425.117 613.278 426.875 613.22 428.235C614.449 428.163 615.694 428.042 615.685 427.86Z" fill="#3A3A3A"/>
</g>
<path d="M607.845 430.126L605.04 427.338C604.988 427.283 604.924 427.247 604.854 427.227L596.93 425.199C596.834 425.176 596.651 425.46 596.686 425.554L597.472 427.671C597.524 427.804 597.636 427.905 597.774 427.938L607.585 430.374C607.736 430.419 607.909 430.188 607.848 430.116L607.845 430.126Z" fill="#9E9E9F"/>
<path d="M607.854 430.087L605.219 427.201C605.168 427.146 605.104 427.11 605.033 427.09L596.984 425.215C596.888 425.192 596.805 425.29 596.84 425.385L597.652 427.537C597.703 427.671 597.815 427.772 597.953 427.804L607.764 430.24C607.854 430.263 607.918 430.152 607.854 430.083V430.087Z" fill="#BCBBBD"/>
<path d="M597.431 425.616C597.492 425.649 598.175 427.332 598.175 427.332L606.471 429.412L604.844 427.429L597.431 425.616Z" fill="#DBDBDD"/>
<path d="M607.415 428.975C607.415 428.975 603.907 429.102 603.647 429.092C603.387 429.086 602.745 428.897 602.745 428.897C602.408 428.779 602.029 428.587 601.757 428.372C601.458 428.137 601.294 428.036 601.294 428.036C601.15 428.085 601.163 428.218 601.291 428.388C601.68 428.903 601.843 428.942 601.843 428.942C601.843 428.942 601.76 428.929 601.561 428.877C601.561 428.877 600.99 428.74 600.951 428.717C600.701 428.626 600.361 428.505 600.296 428.567C600.303 428.698 600.332 428.743 600.386 428.825C600.56 429.083 600.665 429.278 601.243 429.533C601.843 429.803 602.087 429.94 602.713 429.891C603.477 429.833 606.529 430.384 607.517 430.462L607.418 428.968L607.415 428.975Z" fill="#EAAB94"/>
<path d="M614.674 420.641C614.674 420.641 615.656 426.357 614.228 427.866C612.739 429.445 607.267 428.838 605.968 429.011C605.83 429.03 605.775 430.051 605.839 430.146C605.903 430.24 615.127 431.959 616.584 430.759C618.718 428.998 617.739 419.738 617.739 419.738L616.539 420.054L614.671 420.641H614.674Z" fill="#EAAB94"/>
<path d="M612.17 412.078C612.658 412.078 614.317 411.915 615.055 412.391C617.209 413.777 617.482 417.788 617.995 419.773C618.063 420.034 616.676 420.285 615.1 420.784C614.295 421.039 613.791 421.413 613.74 421.153C613.117 417.987 611.066 412.085 612.17 412.078Z" fill="#5696C8"/>
<path d="M614.6 410.438C614.064 407.174 613.63 405.498 613.168 403.819C612.799 402.564 612.334 401.647 610.566 401.005C606.962 399.701 605.052 401.745 605.119 403.796C605.126 403.995 605.623 404.285 605.829 404.223C606.894 403.907 607.998 404.363 608.999 403.825C609.731 403.434 610.065 402.714 610.46 402.026C610.402 402.691 610.341 403.803 610.601 404.432C610.967 405.319 611.567 405.185 611.798 406.043C611.929 406.528 611.586 407.216 611.278 408.847C610.947 410.598 610.739 412.186 610.7 413.973C610.675 415.189 610.402 416.451 612.167 417.39C612.889 417.775 613.63 417.719 614.311 417.285C616.377 415.968 614.831 412.597 614.593 410.438H614.6Z" fill="#704A40"/>
<path d="M165.274 37.3032C165.474 37.8353 165.976 38.1861 166.533 38.1861C167.09 38.1861 167.591 37.8353 167.792 37.3032L169.585 32.4243C169.641 32.2771 169.752 32.1526 169.897 32.096L174.699 30.2622C175.223 30.0584 175.568 29.549 175.568 28.983C175.568 28.417 175.223 27.8963 174.699 27.7038L169.897 25.87C169.752 25.8134 169.63 25.7002 169.574 25.553L167.769 20.6741C167.535 20.1873 167.045 19.8704 166.51 19.8704C165.976 19.8704 165.485 20.1873 165.251 20.6741L163.446 25.553C163.391 25.7002 163.279 25.8134 163.134 25.87L158.332 27.7038C157.809 27.9076 157.463 28.417 157.463 28.983C157.463 29.549 157.809 30.0584 158.332 30.2622L163.134 32.096C163.279 32.1526 163.391 32.2658 163.458 32.4243L165.262 37.3032H165.274Z" fill="#27AA27"/>
<path d="M187.144 55.0415C187.267 55.3811 187.59 55.6075 187.946 55.6075C188.303 55.6075 188.615 55.3811 188.749 55.0415L189.885 51.9512C189.918 51.8606 189.996 51.7814 190.086 51.7474L193.127 50.5928C193.461 50.4682 193.684 50.1399 193.684 49.7777C193.684 49.4154 193.461 49.0872 193.127 48.9627L190.086 47.7967C189.996 47.7627 189.918 47.6835 189.885 47.5929L188.749 44.5026C188.604 44.1856 188.292 43.9932 187.946 43.9932C187.601 43.9932 187.3 44.1969 187.144 44.5026L186.008 47.5929C185.974 47.6835 185.896 47.7627 185.807 47.7967L182.766 48.9627C182.431 49.0872 182.208 49.4154 182.208 49.7777C182.208 50.1399 182.431 50.4682 182.766 50.5928L185.807 51.7587C185.896 51.7926 185.974 51.8719 186.008 51.9625L187.155 55.0528L187.144 55.0415Z" fill="#27AA27"/>
<path d="M201.473 32.1074C201.64 32.5602 202.064 32.8658 202.543 32.8658C203.022 32.8658 203.445 32.5602 203.612 32.1074L205.139 27.9643C205.183 27.8397 205.283 27.7378 205.406 27.6926L209.484 26.1417C209.929 25.9719 210.23 25.5418 210.23 25.055C210.23 24.5682 209.929 24.1381 209.484 23.9683L205.406 22.4061C205.283 22.3608 205.183 22.2589 205.139 22.1344L203.612 17.9913C203.412 17.5724 202.999 17.3008 202.543 17.3008C202.086 17.3008 201.674 17.5724 201.473 17.9913L199.947 22.1344C199.902 22.2589 199.802 22.3608 199.679 22.4061L195.601 23.9683C195.156 24.1381 194.855 24.5682 194.855 25.055C194.855 25.5418 195.156 25.9719 195.601 26.1417L199.679 27.6926C199.802 27.7378 199.902 27.8397 199.947 27.9643L201.484 32.1074H201.473Z" fill="#8EC641"/>
<path d="M508.416 25.7964C508.072 25.7964 507.739 25.8314 507.412 25.8926C507.423 25.7176 507.432 25.5397 507.432 25.3618C507.432 20.9519 503.912 17.3762 499.572 17.3762C498.234 17.3762 496.977 17.7174 495.875 18.3153C494.775 12.4792 489.726 8.06641 483.657 8.06641C479.03 8.06641 474.994 10.6359 472.852 14.445C470.895 12.4996 468.219 11.3009 465.265 11.3009C459.271 11.3009 454.414 16.2358 454.414 22.3256C454.414 22.8069 454.446 23.2823 454.503 23.746C453.591 23.3931 452.603 23.1977 451.57 23.1977C447.017 23.1977 443.328 26.9455 443.328 31.5712H514.094C514.094 28.3834 511.551 25.7993 508.413 25.7993" fill="#DFF2F8"/>
<g clip-path="url(#clip1_104_6208)">
<path d="M48.1835 121.979C73.5707 121.979 94.1502 142.558 94.1502 167.945C94.1502 193.332 73.5707 213.912 48.1835 213.912C22.7963 213.912 2.2168 193.328 2.2168 167.941C2.2168 142.558 22.7963 121.979 48.1835 121.979Z" fill="#EBF3E0"/>
<path d="M73.3467 265.664L73.3467 243.823L97.7203 243.823L97.7203 265.664L73.3467 265.664Z" fill="#96CAE5"/>
<path d="M51.2094 291.489C51.1345 291.683 50.9451 291.809 50.7361 291.805C50.5271 291.801 50.3457 291.667 50.2747 291.474L49.6436 289.679C49.6239 289.624 49.5805 289.581 49.5293 289.557L47.7624 288.855C47.5691 288.78 47.4429 288.591 47.4469 288.382C47.4508 288.173 47.5849 287.991 47.7782 287.92L49.5727 287.285C49.6279 287.266 49.6713 287.226 49.691 287.171L50.393 285.4C50.4837 285.223 50.6651 285.112 50.8663 285.116C51.0635 285.12 51.2449 285.238 51.3277 285.42L51.9627 287.214C51.9824 287.269 52.0218 287.313 52.0771 287.333L53.8439 288.035C54.0372 288.11 54.1634 288.299 54.1595 288.508C54.1555 288.717 54.0214 288.898 53.8282 288.969L52.0337 289.604C51.9785 289.624 51.9351 289.667 51.9154 289.719L51.2094 291.489Z" fill="#A1CA38"/>
<path d="M44.0671 297.76C44.0237 297.867 43.9212 297.934 43.8068 297.934C43.6924 297.93 43.5938 297.859 43.5544 297.752L43.2073 296.774C43.1955 296.743 43.1718 296.719 43.1442 296.707L42.1779 296.325C42.0714 296.281 42.0044 296.179 42.0044 296.068C42.0083 295.954 42.0793 295.855 42.1858 295.816L43.1639 295.469C43.1955 295.457 43.2191 295.437 43.231 295.406L43.6135 294.439C43.6609 294.341 43.7634 294.282 43.8699 294.282C43.9803 294.286 44.075 294.349 44.1223 294.447L44.4694 295.425C44.4812 295.457 44.5009 295.477 44.5325 295.489L45.4987 295.871C45.6052 295.915 45.6723 296.017 45.6723 296.131C45.6683 296.246 45.5973 296.344 45.4908 296.384L44.5127 296.731C44.4812 296.743 44.4575 296.766 44.4457 296.794L44.0671 297.76Z" fill="#27A527"/>
<path d="M35.1698 295.378C35.1382 295.461 35.0554 295.512 34.9687 295.512C34.8819 295.512 34.803 295.453 34.7715 295.37L34.5033 294.605C34.4954 294.582 34.4757 294.562 34.4559 294.554L33.7027 294.254C33.6198 294.223 33.5646 294.14 33.5686 294.053C33.5686 293.962 33.6277 293.887 33.7105 293.856L34.4757 293.584C34.4993 293.576 34.519 293.556 34.5269 293.536L34.8267 292.783C34.8661 292.708 34.945 292.661 35.0278 292.661C35.1146 292.661 35.1895 292.712 35.225 292.791L35.4971 293.556C35.505 293.58 35.5248 293.6 35.5445 293.607L36.2978 293.907C36.3806 293.939 36.4358 294.022 36.4319 294.108C36.4319 294.195 36.3727 294.274 36.2899 294.306L35.5248 294.578C35.5011 294.586 35.4814 294.605 35.4735 294.629L35.1698 295.378Z" fill="#B5D699"/>
<path d="M48.5894 159.053L48.5894 172.356L48.1831 172.356L48.1831 159.053L48.5894 159.053Z" fill="#D9D9D9"/>
<path d="M96.8727 153.842L97.6852 155.664L48.5791 155.664L48.6422 153.842L96.8727 153.842Z" fill="#8C8C8C"/>
<path d="M97.6851 187.038L97.6851 155.66L51.2254 155.66C51.0676 155.66 50.9414 155.786 50.9414 155.944L50.9414 187.042L97.6851 187.042L97.6851 187.038Z" fill="#CDCBCB"/>
<path d="M48.1964 170.56L45.6959 170.56C45.2069 170.56 44.8125 170.955 44.8125 171.444L44.8125 183.863C44.8125 185.618 46.2363 187.042 47.9913 187.042L54.7789 187.042C54.7867 187.042 58.5769 187.03 58.5769 187.03L58.5769 155.66C58.5769 155.66 54.7828 155.66 54.7631 155.66L48.579 155.66C48.579 155.66 48.575 155.66 48.575 155.664L48.575 170.182C48.575 170.391 48.4054 170.56 48.1964 170.56Z" fill="#CDCBCB"/>
<path d="M50.6143 187.042L50.6143 155.66L50.9455 155.66L50.9455 187.042L50.6143 187.042Z" fill="#808080"/>
<path d="M80.5527 166.805L80.5527 175.836L80.182 175.836L80.182 166.805L80.5527 166.805Z" fill="#E5E5E5"/>
<path d="M84.856 166.805L84.856 175.836L84.4852 175.836L84.4852 166.805L84.856 166.805Z" fill="#E5E5E5"/>
<path d="M89.1558 166.805L89.1558 175.836L88.785 175.836L88.785 166.805L89.1558 166.805Z" fill="#E5E5E5"/>
<path d="M93.459 166.805L93.459 175.836L93.0883 175.836L93.0883 166.805L93.459 166.805Z" fill="#E5E5E5"/>
<path d="M55.5125 166.171L55.5125 160.83C55.5125 159.848 54.7197 159.056 53.7377 159.056L53.43 159.056C52.448 159.056 51.6553 159.848 51.6553 160.83L51.6553 166.171C51.6553 167.153 52.448 167.945 53.43 167.945L53.7377 167.945C54.7158 167.945 55.5125 167.149 55.5125 166.171Z" fill="#D5E7F6"/>
<path d="M55.2913 157.51C55.2913 157.913 54.9646 158.239 54.5617 158.239C54.1587 158.239 53.832 157.913 53.832 157.51C53.832 157.107 54.1587 156.78 54.5617 156.78C54.9646 156.78 55.2913 157.107 55.2913 157.51Z" fill="#D5E7F6"/>
<path d="M53.2979 156.662L53.2979 158.409L52.8482 158.409L52.8482 156.662L53.2979 156.662Z" fill="#D5E7F6"/>
<path d="M52.3267 156.662L52.3267 158.409L51.8771 158.409L51.8771 156.662L52.3267 156.662Z" fill="#D5E7F6"/>
<path d="M69.8335 186.983L69.8335 155.664L70.1648 155.664L70.1648 186.983L69.8335 186.983Z" fill="#808080"/>
<path d="M75.543 186.983L75.543 155.664L75.8743 155.664L75.8743 186.983L75.543 186.983Z" fill="#808080"/>
<path d="M47.171 156.157C46.7924 156.157 46.4808 156.465 46.4808 156.847L46.4808 165.626C45.4909 166.139 44.8125 167.172 44.8125 168.363L44.8125 179.872L47.167 179.872L47.167 165.366L47.171 156.157Z" fill="#A6A6A6"/>
<path d="M65.4276 169.113L58.8018 169.113C58.0367 169.113 57.4175 169.732 57.4175 170.497L57.4175 187.038L65.4316 187.038L65.4316 169.113L65.4276 169.113Z" fill="#D8D6D6"/>
<path d="M52.4753 164.641L48.2715 161.617L50.2865 158.816L54.4903 161.84L52.4753 164.641Z" fill="white" stroke="#6A7885" stroke-width="0.345135" stroke-miterlimit="10"/>
<path d="M35.6353 221.003L35.6353 191.925L97.6893 191.925L97.6893 221.003L35.6353 221.003Z" fill="#2DA34A"/>
<path d="M48.5635 197.919L48.5635 196.212L49.2103 196.212L49.2103 197.919L48.5635 197.919Z" fill="#3CB04A"/>
<path d="M48.5635 202.798L48.5635 201.09L49.2103 201.09L49.2103 202.798L48.5635 202.798Z" fill="#3CB04A"/>
<path d="M48.5635 207.681L48.5635 205.973L49.2103 205.973L49.2103 207.681L48.5635 207.681Z" fill="#3CB04A"/>
<path d="M48.5635 212.559L48.5635 210.852L49.2103 210.852L49.2103 212.559L48.5635 212.559Z" fill="#3CB04A"/>
<path d="M48.5635 217.442L48.5635 215.734L49.2103 215.734L49.2103 217.442L48.5635 217.442Z" fill="#3CB04A"/>
<path d="M45.6846 197.919L45.6846 196.212L48.5636 196.212L48.5636 197.919L45.6846 197.919Z" fill="#9DCF9F"/>
<path d="M45.6846 202.798L45.6846 201.09L48.5636 201.09L48.5636 202.798L45.6846 202.798Z" fill="#9DCF9F"/>
<path d="M45.6846 207.681L45.6846 205.973L48.5636 205.973L48.5636 207.681L45.6846 207.681Z" fill="#9DCF9F"/>
<path d="M45.6846 212.559L45.6846 210.852L48.5636 210.852L48.5636 212.559L45.6846 212.559Z" fill="#9DCF9F"/>
<path d="M45.6846 217.442L45.6846 215.734L48.5636 215.734L48.5636 217.442L45.6846 217.442Z" fill="#9DCF9F"/>
<path d="M54.4746 197.923L54.4746 196.216L55.1214 196.216L55.1214 197.923L54.4746 197.923Z" fill="#3CB04A"/>
<path d="M54.4746 202.806L54.4746 201.098L55.1214 201.098L55.1214 202.806L54.4746 202.806Z" fill="#3CB04A"/>
<path d="M54.4746 207.685L54.4746 205.977L55.1214 205.977L55.1214 207.685L54.4746 207.685Z" fill="#3CB04A"/>
<path d="M54.4746 212.563L54.4746 210.855L55.1214 210.855L55.1214 212.563L54.4746 212.563Z" fill="#3CB04A"/>
<path d="M54.4746 217.446L54.4746 215.738L55.1214 215.738L55.1214 217.446L54.4746 217.446Z" fill="#3CB04A"/>
<path d="M51.5962 197.923L51.5962 196.216L54.4753 196.216L54.4753 197.923L51.5962 197.923Z" fill="#9DCF9F"/>
<path d="M51.5962 202.806L51.5962 201.098L54.4753 201.098L54.4753 202.806L51.5962 202.806Z" fill="#9DCF9F"/>
<path d="M51.5962 207.685L51.5962 205.977L54.4753 205.977L54.4753 207.685L51.5962 207.685Z" fill="#9DCF9F"/>
<path d="M51.5962 212.563L51.5962 210.855L54.4753 210.855L54.4753 212.563L51.5962 212.563Z" fill="#9DCF9F"/>
<path d="M51.5962 217.446L51.5962 215.738L54.4753 215.738L54.4753 217.446L51.5962 217.446Z" fill="#9DCF9F"/>
<path d="M60.3911 197.923L60.3911 196.216L61.0379 196.216L61.0379 197.923L60.3911 197.923Z" fill="#3CB04A"/>
<path d="M60.3916 202.806L60.3916 201.098L61.0384 201.098L61.0384 202.806L60.3916 202.806Z" fill="#3CB04A"/>
<path d="M60.3916 207.685L60.3916 205.977L61.0384 205.977L61.0384 207.685L60.3916 207.685Z" fill="#3CB04A"/>
<path d="M60.3916 212.563L60.3916 210.855L61.0384 210.855L61.0384 212.563L60.3916 212.563Z" fill="#3CB04A"/>
<path d="M60.3916 217.446L60.3916 215.738L61.0384 215.738L61.0384 217.446L60.3916 217.446Z" fill="#3CB04A"/>
<path d="M57.5122 197.923L57.5122 196.216L60.3913 196.216L60.3913 197.923L57.5122 197.923Z" fill="#9DCF9F"/>
<path d="M57.5122 202.806L57.5122 201.098L60.3913 201.098L60.3913 202.806L57.5122 202.806Z" fill="#9DCF9F"/>
<path d="M57.5122 207.685L57.5122 205.977L60.3913 205.977L60.3913 207.685L57.5122 207.685Z" fill="#9DCF9F"/>
<path d="M57.5122 212.563L57.5122 210.855L60.3913 210.855L60.3913 212.563L57.5122 212.563Z" fill="#9DCF9F"/>
<path d="M57.5122 217.446L57.5122 215.738L60.3913 215.738L60.3913 217.446L57.5122 217.446Z" fill="#9DCF9F"/>
<path d="M66.3027 197.923L66.3027 196.216L66.9495 196.216L66.9495 197.923L66.3027 197.923Z" fill="#3CB04A"/>
<path d="M66.3027 202.806L66.3027 201.098L66.9495 201.098L66.9495 202.806L66.3027 202.806Z" fill="#3CB04A"/>
<path d="M66.3027 207.685L66.3027 205.977L66.9495 205.977L66.9495 207.685L66.3027 207.685Z" fill="#3CB04A"/>
<path d="M66.3027 212.563L66.3027 210.855L66.9495 210.855L66.9495 212.563L66.3027 212.563Z" fill="#3CB04A"/>
<path d="M66.3027 217.446L66.3027 215.738L66.9495 215.738L66.9495 217.446L66.3027 217.446Z" fill="#3CB04A"/>
<path d="M63.4238 197.923L63.4238 196.216L66.3029 196.216L66.3029 197.923L63.4238 197.923Z" fill="#9DCF9F"/>
<path d="M63.4238 202.806L63.4238 201.098L66.3029 201.098L66.3029 202.806L63.4238 202.806Z" fill="#9DCF9F"/>
<path d="M63.4238 207.685L63.4238 205.977L66.3029 205.977L66.3029 207.685L63.4238 207.685Z" fill="#9DCF9F"/>
<path d="M63.4238 212.563L63.4238 210.855L66.3029 210.855L66.3029 212.563L63.4238 212.563Z" fill="#9DCF9F"/>
<path d="M63.4238 217.446L63.4238 215.738L66.3029 215.738L66.3029 217.446L63.4238 217.446Z" fill="#9DCF9F"/>
<path d="M72.2148 197.923L72.2148 196.216L72.8617 196.216L72.8617 197.923L72.2148 197.923Z" fill="#3CB04A"/>
<path d="M72.2148 202.806L72.2148 201.098L72.8617 201.098L72.8617 202.806L72.2148 202.806Z" fill="#3CB04A"/>
<path d="M72.2148 207.685L72.2148 205.977L72.8617 205.977L72.8617 207.685L72.2148 207.685Z" fill="#3CB04A"/>
<path d="M72.2148 212.563L72.2148 210.855L72.8617 210.855L72.8617 212.563L72.2148 212.563Z" fill="#3CB04A"/>
<path d="M72.2148 217.446L72.2148 215.738L72.8617 215.738L72.8617 217.446L72.2148 217.446Z" fill="#3CB04A"/>
<path d="M69.3354 197.923L69.3354 196.216L72.2145 196.216L72.2145 197.923L69.3354 197.923Z" fill="#9DCF9F"/>
<path d="M69.3354 202.806L69.3354 201.098L72.2145 201.098L72.2145 202.806L69.3354 202.806Z" fill="#9DCF9F"/>
<path d="M69.3354 207.685L69.3354 205.977L72.2145 205.977L72.2145 207.685L69.3354 207.685Z" fill="#9DCF9F"/>
<path d="M69.3354 212.563L69.3354 210.855L72.2145 210.855L72.2145 212.563L69.3354 212.563Z" fill="#9DCF9F"/>
<path d="M69.3354 217.446L69.3354 215.738L72.2145 215.738L72.2145 217.446L69.3354 217.446Z" fill="#9DCF9F"/>
<path d="M78.1313 197.923L78.1313 196.216L78.7782 196.216L78.7782 197.923L78.1313 197.923Z" fill="#3CB04A"/>
<path d="M78.1313 202.806L78.1313 201.098L78.7782 201.098L78.7782 202.806L78.1313 202.806Z" fill="#3CB04A"/>
<path d="M78.1313 207.685L78.1313 205.977L78.7782 205.977L78.7782 207.685L78.1313 207.685Z" fill="#3CB04A"/>
<path d="M78.1313 212.563L78.1313 210.855L78.7782 210.855L78.7782 212.563L78.1313 212.563Z" fill="#3CB04A"/>
<path d="M78.1313 217.446L78.1313 215.738L78.7782 215.738L78.7782 217.446L78.1313 217.446Z" fill="#3CB04A"/>
<path d="M75.2524 197.923L75.2524 196.216L78.1315 196.216L78.1315 197.923L75.2524 197.923Z" fill="#9DCF9F"/>
<path d="M75.2524 202.806L75.2524 201.098L78.1315 201.098L78.1315 202.806L75.2524 202.806Z" fill="#9DCF9F"/>
<path d="M75.2524 207.685L75.2524 205.977L78.1315 205.977L78.1315 207.685L75.2524 207.685Z" fill="#9DCF9F"/>
<path d="M75.2524 212.563L75.2524 210.855L78.1315 210.855L78.1315 212.563L75.2524 212.563Z" fill="#9DCF9F"/>
<path d="M75.2524 217.446L75.2524 215.738L78.1315 215.738L78.1315 217.446L75.2524 217.446Z" fill="#9DCF9F"/>
<path d="M84.043 197.923L84.043 196.216L84.6898 196.216L84.6898 197.923L84.043 197.923Z" fill="#3CB04A"/>
<path d="M84.043 202.806L84.043 201.098L84.6898 201.098L84.6898 202.806L84.043 202.806Z" fill="#3CB04A"/>
<path d="M84.043 207.685L84.043 205.977L84.6898 205.977L84.6898 207.685L84.043 207.685Z" fill="#3CB04A"/>
<path d="M84.043 212.563L84.043 210.855L84.6898 210.855L84.6898 212.563L84.043 212.563Z" fill="#3CB04A"/>
<path d="M84.043 217.446L84.043 215.738L84.6898 215.738L84.6898 217.446L84.043 217.446Z" fill="#3CB04A"/>
<path d="M81.1641 197.923L81.1641 196.216L84.0431 196.216L84.0431 197.923L81.1641 197.923Z" fill="#9DCF9F"/>
<path d="M81.1641 202.806L81.1641 201.098L84.0431 201.098L84.0431 202.806L81.1641 202.806Z" fill="#9DCF9F"/>
<path d="M81.1641 207.685L81.1641 205.977L84.0431 205.977L84.0431 207.685L81.1641 207.685Z" fill="#9DCF9F"/>
<path d="M81.1641 212.563L81.1641 210.855L84.0431 210.855L84.0431 212.563L81.1641 212.563Z" fill="#9DCF9F"/>
<path d="M81.1641 217.446L81.1641 215.738L84.0431 215.738L84.0431 217.446L81.1641 217.446Z" fill="#9DCF9F"/>
<path d="M89.959 197.923L89.959 196.216L90.6058 196.216L90.6058 197.923L89.959 197.923Z" fill="#3CB04A"/>
<path d="M89.959 202.806L89.959 201.098L90.6058 201.098L90.6058 202.806L89.959 202.806Z" fill="#3CB04A"/>
<path d="M89.959 207.685L89.959 205.977L90.6058 205.977L90.6058 207.685L89.959 207.685Z" fill="#3CB04A"/>
<path d="M89.959 212.563L89.959 210.855L90.6058 210.855L90.6058 212.563L89.959 212.563Z" fill="#3CB04A"/>
<path d="M89.959 217.446L89.959 215.738L90.6058 215.738L90.6058 217.446L89.959 217.446Z" fill="#3CB04A"/>
<path d="M87.0801 197.923L87.0801 196.216L89.9592 196.216L89.9592 197.923L87.0801 197.923Z" fill="#9DCF9F"/>
<path d="M87.0801 202.806L87.0801 201.098L89.9592 201.098L89.9592 202.806L87.0801 202.806Z" fill="#9DCF9F"/>
<path d="M87.0801 207.685L87.0801 205.977L89.9592 205.977L89.9592 207.685L87.0801 207.685Z" fill="#9DCF9F"/>
<path d="M87.0801 212.563L87.0801 210.855L89.9592 210.855L89.9592 212.563L87.0801 212.563Z" fill="#9DCF9F"/>
<path d="M87.0801 217.446L87.0801 215.738L89.9592 215.738L89.9592 217.446L87.0801 217.446Z" fill="#9DCF9F"/>
<path d="M92.9951 202.806L92.9951 196.216L97.6884 196.216L97.6884 202.806L92.9951 202.806Z" fill="#3CB04A"/>
<path d="M92.9951 209.542L92.9951 204.261L97.6884 204.261L97.6884 209.542L92.9951 209.542Z" fill="#3CB04A"/>
<path d="M92.9951 217.446L92.9951 210.855L97.6884 210.855L97.6884 217.446L92.9951 217.446Z" fill="#3CB04A"/>
<path d="M92.9917 206.939L92.9917 206.722L97.685 206.722L97.685 206.939L92.9917 206.939Z" fill="#61B867"/>
<path d="M40.5728 217.442L40.5728 208.288L41.4917 208.288L41.4917 217.442L40.5728 217.442Z" fill="#3CB04A"/>
<path d="M40.5728 205.366L40.5728 196.212L41.4917 196.212L41.4917 205.366L40.5728 205.366Z" fill="#3CB04A"/>
<path d="M42.8959 206.825C42.8959 207.853 42.0625 208.686 41.0344 208.686C40.0063 208.686 39.1729 207.853 39.1729 206.825C39.1729 205.797 40.0063 204.963 41.0344 204.963C42.0625 204.963 42.8959 205.797 42.8959 206.825Z" fill="#3CB04A"/>
<path d="M29.4189 244.119L29.4189 221.086L97.6413 221.086L97.6413 244.119L29.4189 244.119Z" fill="#97C65D"/>
<path d="M36.9761 227.925L36.9761 225.862L37.8714 225.862L37.8714 227.925L36.9761 227.925Z" fill="#68AB9E"/>
<path d="M36.9761 233.817L36.9761 231.754L37.8714 231.754L37.8714 233.817L36.9761 233.817Z" fill="#68AB9E"/>
<path d="M36.9761 239.705L36.9761 237.643L37.8714 237.643L37.8714 239.705L36.9761 239.705Z" fill="#68AB9E"/>
<path d="M32.9888 227.925L32.9888 225.862L36.9722 225.862L36.9722 227.925L32.9888 227.925Z" fill="#C0DBD5"/>
<path d="M32.9888 233.817L32.9888 231.754L36.9722 231.754L36.9722 233.817L32.9888 233.817Z" fill="#C0DBD5"/>
<path d="M32.9888 239.705L32.9888 237.643L36.9722 237.643L36.9722 239.705L32.9888 239.705Z" fill="#C0DBD5"/>
<path d="M45.1592 227.925L45.1592 225.862L46.0545 225.862L46.0545 227.925L45.1592 227.925Z" fill="#68AB9E"/>
<path d="M45.1592 233.817L45.1592 231.754L46.0545 231.754L46.0545 233.817L45.1592 233.817Z" fill="#68AB9E"/>
<path d="M45.1592 239.705L45.1592 237.643L46.0545 237.643L46.0545 239.705L45.1592 239.705Z" fill="#68AB9E"/>
<path d="M41.1763 227.925L41.1763 225.862L45.1597 225.862L45.1597 227.925L41.1763 227.925Z" fill="#C0DBD5"/>
<path d="M41.1763 233.817L41.1763 231.754L45.1597 231.754L45.1597 233.817L41.1763 233.817Z" fill="#C0DBD5"/>
<path d="M41.1763 239.705L41.1763 237.643L45.1597 237.643L45.1597 239.705L41.1763 239.705Z" fill="#C0DBD5"/>
<path d="M53.3438 227.925L53.3438 225.862L54.239 225.862L54.239 227.925L53.3438 227.925Z" fill="#68AB9E"/>
<path d="M53.3438 233.817L53.3438 231.754L54.239 231.754L54.239 233.817L53.3438 233.817Z" fill="#68AB9E"/>
<path d="M53.3438 239.705L53.3438 237.643L54.239 237.643L54.239 239.705L53.3438 239.705Z" fill="#68AB9E"/>
<path d="M49.3599 227.925L49.3599 225.862L53.3432 225.862L53.3432 227.925L49.3599 227.925Z" fill="#C0DBD5"/>
<path d="M49.3599 233.817L49.3599 231.754L53.3432 231.754L53.3432 233.817L49.3599 233.817Z" fill="#C0DBD5"/>
<path d="M49.3599 239.705L49.3599 237.643L53.3432 237.643L53.3432 239.705L49.3599 239.705Z" fill="#C0DBD5"/>
<path d="M61.5308 227.925L61.5308 225.862L62.426 225.862L62.426 227.925L61.5308 227.925Z" fill="#68AB9E"/>
<path d="M61.5308 233.817L61.5308 231.754L62.426 231.754L62.426 233.817L61.5308 233.817Z" fill="#68AB9E"/>
<path d="M61.5308 239.705L61.5308 237.643L62.426 237.643L62.426 239.705L61.5308 239.705Z" fill="#68AB9E"/>
<path d="M57.543 227.925L57.543 225.862L61.5264 225.862L61.5264 227.925L57.543 227.925Z" fill="#C0DBD5"/>
<path d="M57.543 233.817L57.543 231.754L61.5264 231.754L61.5264 233.817L57.543 233.817Z" fill="#C0DBD5"/>
<path d="M57.543 239.705L57.543 237.643L61.5264 237.643L61.5264 239.705L57.543 239.705Z" fill="#C0DBD5"/>
<path d="M69.7144 227.925L69.7144 225.862L70.6096 225.862L70.6096 227.925L69.7144 227.925Z" fill="#68AB9E"/>
<path d="M69.7144 233.817L69.7144 231.754L70.6096 231.754L70.6096 233.817L69.7144 233.817Z" fill="#68AB9E"/>
<path d="M69.7144 239.705L69.7144 237.643L70.6096 237.643L70.6096 239.705L69.7144 239.705Z" fill="#68AB9E"/>
<path d="M65.731 227.925L65.731 225.862L69.7143 225.862L69.7143 227.925L65.731 227.925Z" fill="#C0DBD5"/>
<path d="M65.731 233.817L65.731 231.754L69.7143 231.754L69.7143 233.817L65.731 233.817Z" fill="#C0DBD5"/>
<path d="M65.731 239.705L65.731 237.643L69.7143 237.643L69.7143 239.705L65.731 239.705Z" fill="#C0DBD5"/>
<path d="M77.8984 227.925L77.8984 225.862L78.7937 225.862L78.7937 227.925L77.8984 227.925Z" fill="#68AB9E"/>
<path d="M77.8984 233.817L77.8984 231.754L78.7937 231.754L78.7937 233.817L77.8984 233.817Z" fill="#68AB9E"/>
<path d="M77.8984 239.705L77.8984 237.643L78.7937 237.643L78.7937 239.705L77.8984 239.705Z" fill="#68AB9E"/>
<path d="M73.9146 227.925L73.9146 225.862L77.8979 225.862L77.8979 227.925L73.9146 227.925Z" fill="#C0DBD5"/>
<path d="M73.9146 233.817L73.9146 231.754L77.8979 231.754L77.8979 233.817L73.9146 233.817Z" fill="#C0DBD5"/>
<path d="M73.9146 239.705L73.9146 237.643L77.8979 237.643L77.8979 239.705L73.9146 239.705Z" fill="#C0DBD5"/>
<path d="M86.0859 227.925L86.0859 225.862L86.9812 225.862L86.9812 227.925L86.0859 227.925Z" fill="#68AB9E"/>
<path d="M86.0859 233.817L86.0859 231.754L86.9812 231.754L86.9812 233.817L86.0859 233.817Z" fill="#68AB9E"/>
<path d="M86.0859 239.705L86.0859 237.643L86.9812 237.643L86.9812 239.705L86.0859 239.705Z" fill="#68AB9E"/>
<path d="M82.0986 227.925L82.0986 225.862L86.082 225.862L86.082 227.925L82.0986 227.925Z" fill="#C0DBD5"/>
<path d="M82.0986 233.817L82.0986 231.754L86.082 231.754L86.082 233.817L82.0986 233.817Z" fill="#C0DBD5"/>
<path d="M82.0986 239.705L82.0986 237.643L86.082 237.643L86.082 239.705L82.0986 239.705Z" fill="#C0DBD5"/>
<path d="M91.1494 229.92L91.1494 225.219L97.6451 225.219L97.6451 229.92L91.1494 229.92Z" fill="#68AB9E"/>
<path d="M91.1494 240.254L91.1494 235.552L97.6451 235.552L97.6451 240.254L91.1494 240.254Z" fill="#68AB9E"/>
<path d="M91.1494 234.724L91.1494 230.958L97.6451 230.958L97.6451 234.724L91.1494 234.724Z" fill="#68AB9E"/>
<path d="M91.145 232.871L91.145 232.717L97.6407 232.717L97.6407 232.871L91.145 232.871Z" fill="#8AC3B9"/>
<path d="M91.6071 186.013C91.6071 189.404 88.8578 192.153 85.4664 192.153C82.075 192.153 79.3257 189.404 79.3257 186.013C79.3257 182.621 82.075 179.872 85.4664 179.872C88.8578 179.872 91.6071 182.621 91.6071 186.013Z" fill="#89C141"/>
<path d="M97.5584 186.344L84.6893 186.344C84.5553 186.344 84.4448 186.233 84.4448 186.099C84.4448 185.965 84.5553 185.855 84.6893 185.855L97.5584 185.855L97.5584 186.344Z" fill="#558A40"/>
<path d="M94.3951 191.309C95.1681 190.536 96.0121 188.438 95.2391 187.665C94.4661 186.892 92.3679 187.732 91.5949 188.509C90.8219 189.286 90.8219 190.536 91.5949 191.313C92.3679 192.09 93.6181 192.086 94.3951 191.309Z" fill="#89C141"/>
<path d="M92.2258 190.647C92.1311 190.552 92.1311 190.394 92.2258 190.3L96.4774 186.048L97.1715 186.048L92.5728 190.647C92.4782 190.741 92.3244 190.741 92.2258 190.647Z" fill="#558A40"/>
</g>
</g>
<defs>
<clipPath id="clip0_104_6208">
<rect width="720" height="461.949" fill="white" transform="translate(0.522949)"/>
</clipPath>
<clipPath id="clip1_104_6208">
<rect width="180.278" height="99.7897" fill="white" transform="matrix(4.37114e-08 1 1 -4.37114e-08 0.241699 117.656)"/>
</clipPath>
</defs>
</svg>
